<svg xmlns="http://www.w3.org/2000/svg" xmlns:xlink="http://www.w3.org/1999/xlink" width="500" zoomAndPan="magnify" viewBox="0 0 375 374.999991" height="500" preserveAspectRatio="xMidYMid meet" version="1.0"><defs><filter x="0%" y="0%" width="100%" height="100%" id="305513f37f"><feColorMatrix values="0 0 0 0 1 0 0 0 0 1 0 0 0 0 1 0 0 0 1 0" color-interpolation-filters="sRGB"/></filter><g/><mask id="9344b73bd3"><g filter="url(#305513f37f)"><rect x="-37.5" width="450" fill="#000000" y="-37.499999" height="449.999989" fill-opacity="0.95"/></g></mask><clipPath id="fa4cd8c088"><path d="M 16 0 L 298.25 0 L 298.25 345 L 16 345 Z M 16 0 " clip-rule="nonzero"/></clipPath><clipPath id="36d97d5580"><path d="M 0.5 78 L 287 78 L 287 375 L 0.5 375 Z M 0.5 78 " clip-rule="nonzero"/></clipPath><clipPath id="6a98c4d245"><rect x="0" width="299" y="0" height="375"/></clipPath></defs><g mask="url(#9344b73bd3)"><g transform="matrix(1, 0, 0, 1, 37, 0)"><g clip-path="url(#6a98c4d245)"><g clip-path="url(#fa4cd8c088)"><path fill="#0460c4" d="M 149.59375 0.00390625 C 231.890625 0.00390625 298.507812 127.570312 298.507812 215.601562 C 298.507812 237.828125 294.253906 258.992188 286.570312 278.210938 C 259.539062 318.542969 215.339844 344.816406 165.40625 344.816406 C 83.113281 344.816406 16.402344 273.453125 16.402344 185.421875 C 16.402344 152.421875 25.789062 113.867188 41.863281 78.558594 C 69.011719 33.777344 107.253906 0.00390625 149.59375 0.00390625 " fill-opacity="1" fill-rule="nonzero"/></g><g clip-path="url(#36d97d5580)"><path fill="#004aad" d="M 165.40625 344.816406 C 215.339844 344.816406 259.539062 318.542969 286.574219 278.210938 C 263.828125 335.121094 211.019531 374.996094 149.503906 374.996094 C 67.210938 374.996094 0.5 303.632812 0.5 215.601562 C 0.5 172.863281 16.246094 120.808594 41.863281 78.558594 C 25.789062 113.867188 16.402344 152.421875 16.402344 185.421875 C 16.402344 273.453125 83.113281 344.816406 165.40625 344.816406 " fill-opacity="1" fill-rule="nonzero"/></g><path fill="#007aff" d="M 237.195312 65.386719 C 247.875 92.394531 241.5625 120.210938 223.09375 127.515625 C 204.625 134.816406 180.988281 118.84375 170.308594 91.835938 C 159.628906 64.828125 165.941406 37.007812 184.414062 29.707031 C 202.882812 22.402344 226.515625 38.375 237.195312 65.386719 " fill-opacity="1" fill-rule="nonzero"/></g></g></g><path fill="#ffffff" d="M 332.09375 323.671875 C 230.625 375.8125 94.242188 296.890625 88.484375 293.507812 C 85.5 291.753906 84.296875 288.175781 85.621094 284.996094 C 88.824219 277.292969 92.5625 265.746094 92.15625 254.492188 C 91.820312 245.1875 105.542969 205.875 127.972656 151.890625 C 130.359375 144.820312 137.757812 142.960938 143.171875 138.929688 C 143.167969 138.925781 192.230469 99.144531 192.230469 99.144531 C 194.09375 97.640625 196.773438 97.648438 198.617188 99.167969 L 228.683594 123.855469 C 230.773438 125.492188 231.085938 128.703125 229.300781 130.664062 C 228.621094 130.980469 228.144531 131.621094 227.769531 132.21875 C 227.769531 132.21875 209.019531 148.160156 209.019531 148.160156 C 205.925781 150.785156 201.253906 150.4375 198.601562 147.378906 C 196.234375 144.636719 196.226562 140.652344 198.597656 137.910156 L 201.589844 134.445312 C 205.570312 129.839844 198.527344 123.679688 194.5 128.324219 C 194.5 128.324219 191.507812 131.789062 191.507812 131.789062 C 178.324219 147.546875 199.402344 168.226562 215.085938 155.296875 C 215.085938 155.296875 231 141.765625 231 141.765625 L 233.503906 145.421875 C 235.214844 147.917969 234.730469 151.246094 232.382812 153.167969 L 213.726562 168.4375 C 211.335938 170.402344 208.191406 171.277344 205.109375 170.851562 L 177.269531 166.972656 C 177.636719 164.910156 177.945312 163.945312 177.953125 163.925781 C 180.023438 158.152344 171.4375 154.894531 169.179688 160.644531 C 168.660156 162.035156 164.207031 175.359375 168.421875 214.285156 C 172.308594 250.179688 150.488281 269.957031 149.554688 270.78125 C 147.621094 272.488281 147.429688 275.4375 149.125 277.382812 C 150.835938 279.332031 153.796875 279.519531 155.734375 277.820312 C 156.441406 277.203125 167.417969 267.296875 173.777344 249.183594 C 180.960938 247.9375 188.304688 249.882812 192.882812 251.550781 C 190.917969 255.128906 188.792969 261.085938 194.132812 262.648438 C 196.566406 263.308594 199.203125 261.832031 199.851562 259.308594 C 205.636719 243.320312 223.210938 235.574219 244.621094 232.042969 C 265.945312 229.246094 286.238281 234.609375 293.96875 245.132812 C 295.5 247.207031 298.425781 247.667969 300.511719 246.132812 C 306.65625 240.355469 296.0625 233.949219 291.378906 230.613281 C 309.667969 211.992188 331.363281 221.183594 332.316406 221.601562 C 334.6875 222.660156 337.449219 221.597656 338.507812 219.242188 C 339.566406 216.878906 338.507812 214.109375 336.148438 213.050781 C 335.835938 212.914062 305.859375 200.039062 282.609375 226.421875 C 258.160156 216.199219 214.632812 224.242188 198.410156 243.636719 C 193.902344 241.773438 185.554688 239.035156 176.496094 239.503906 C 178.117188 231.835938 178.796875 223.097656 177.734375 213.28125 C 175.859375 195.96875 175.800781 184.082031 176.261719 176.285156 L 203.820312 180.125 C 209.4375 180.921875 215.253906 179.300781 219.664062 175.6875 C 219.664062 175.6875 238.320312 160.417969 238.320312 160.417969 C 244.457031 155.390625 245.710938 146.667969 241.234375 140.128906 L 237.714844 134.996094 C 241.472656 129.195312 240.070312 120.917969 234.628906 116.617188 C 234.628906 116.617188 204.566406 91.933594 204.566406 91.933594 C 199.300781 87.601562 191.632812 87.574219 186.332031 91.871094 C 186.332031 91.871094 137.269531 131.652344 137.269531 131.652344 C 136.003906 132.6875 134.585938 133.5 133.09375 134.144531 C 126.832031 136.960938 121.945312 141.988281 119.316406 148.296875 C 105.445312 181.6875 82.257812 239.929688 82.796875 254.832031 C 83.140625 264.390625 79.820312 274.558594 76.976562 281.398438 C 73.832031 288.941406 76.671875 297.429688 83.734375 301.578125 C 119.238281 324.015625 248.816406 380.222656 336.375 332 C 341.753906 329.105469 337.609375 320.933594 332.09375 323.671875 Z M 332.09375 323.671875 " fill-opacity="1" fill-rule="nonzero"/><g fill="#ffffff" fill-opacity="1"><g transform="translate(175.364221, 312.862617)"><g><path d="M 28.625 -40.96875 C 28.863281 -40.988281 29.039062 -41.015625 29.15625 -41.046875 C 29.28125 -41.078125 29.472656 -41.015625 29.734375 -40.859375 C 30.003906 -40.703125 30.269531 -40.625 30.53125 -40.625 C 30.800781 -40.625 31.113281 -40.539062 31.46875 -40.375 C 31.832031 -40.207031 32.128906 -40.023438 32.359375 -39.828125 C 32.597656 -39.628906 32.992188 -39.320312 33.546875 -38.90625 C 34.035156 -38.3125 34.382812 -37.910156 34.59375 -37.703125 C 34.8125 -37.503906 35.046875 -37.144531 35.296875 -36.625 C 35.554688 -36.113281 35.859375 -35.398438 36.203125 -34.484375 C 36.546875 -33.566406 36.75 -32.800781 36.8125 -32.1875 C 36.875 -31.570312 36.972656 -31.164062 37.109375 -30.96875 C 37.253906 -30.769531 37.332031 -30.523438 37.34375 -30.234375 C 37.363281 -29.953125 37.441406 -29.679688 37.578125 -29.421875 C 37.710938 -29.171875 37.800781 -28.71875 37.84375 -28.0625 C 37.894531 -27.40625 38 -26.925781 38.15625 -26.625 C 38.3125 -26.320312 38.4375 -25.882812 38.53125 -25.3125 C 38.632812 -24.75 38.6875 -24.359375 38.6875 -24.140625 C 38.6875 -23.929688 38.722656 -23.75 38.796875 -23.59375 C 38.867188 -23.445312 38.867188 -23.289062 38.796875 -23.125 C 38.722656 -22.957031 38.796875 -22.660156 39.015625 -22.234375 C 39.242188 -21.816406 39.4375 -21.035156 39.59375 -19.890625 C 39.75 -18.742188 39.851562 -17.722656 39.90625 -16.828125 C 39.957031 -15.941406 40.128906 -14.765625 40.421875 -13.296875 C 40.722656 -11.835938 40.789062 -10.867188 40.625 -10.390625 C 40.457031 -9.921875 40.410156 -9.492188 40.484375 -9.109375 C 40.566406 -8.734375 40.597656 -8.359375 40.578125 -7.984375 C 40.566406 -7.609375 40.523438 -7.328125 40.453125 -7.140625 C 40.378906 -6.953125 40.269531 -6.757812 40.125 -6.5625 C 39.988281 -6.363281 39.875 -6.191406 39.78125 -6.046875 C 39.394531 -5.960938 39.078125 -5.90625 38.828125 -5.875 C 38.585938 -5.851562 38.300781 -5.890625 37.96875 -5.984375 C 37.632812 -6.078125 37.253906 -6.101562 36.828125 -6.0625 C 36.398438 -6.019531 36.023438 -6.085938 35.703125 -6.265625 C 35.390625 -6.453125 35.085938 -6.632812 34.796875 -6.8125 C 34.515625 -7 34.117188 -7.304688 33.609375 -7.734375 C 33.203125 -8.503906 32.914062 -9.03125 32.75 -9.3125 C 32.582031 -9.601562 32.4375 -10.003906 32.3125 -10.515625 C 32.1875 -11.035156 32.09375 -11.582031 32.03125 -12.15625 C 31.96875 -12.726562 31.894531 -13.148438 31.8125 -13.421875 C 31.738281 -13.691406 31.734375 -13.921875 31.796875 -14.109375 C 31.867188 -14.296875 31.859375 -14.484375 31.765625 -14.671875 C 31.671875 -14.867188 31.609375 -15.050781 31.578125 -15.21875 C 31.546875 -15.394531 31.566406 -15.566406 31.640625 -15.734375 C 31.710938 -15.910156 31.691406 -16.238281 31.578125 -16.71875 C 31.472656 -17.207031 31.40625 -17.921875 31.375 -18.859375 C 31.351562 -19.804688 31.265625 -20.953125 31.109375 -22.296875 C 30.953125 -23.640625 30.929688 -24.46875 31.046875 -24.78125 C 31.171875 -25.101562 31.160156 -25.398438 31.015625 -25.671875 C 30.878906 -25.941406 30.753906 -26.453125 30.640625 -27.203125 C 30.523438 -27.960938 30.523438 -28.488281 30.640625 -28.78125 C 30.765625 -29.082031 30.75 -29.40625 30.59375 -29.75 C 30.445312 -30.09375 30.382812 -30.691406 30.40625 -31.546875 C 30.4375 -32.410156 30.347656 -32.90625 30.140625 -33.03125 C 29.941406 -33.15625 29.863281 -33.359375 29.90625 -33.640625 C 29.957031 -33.929688 29.925781 -34.140625 29.8125 -34.265625 C 29.707031 -34.398438 29.597656 -34.515625 29.484375 -34.609375 C 29.367188 -34.710938 29.25 -34.847656 29.125 -35.015625 C 28.988281 -34.890625 28.90625 -34.734375 28.875 -34.546875 C 28.84375 -34.367188 28.78125 -34.171875 28.6875 -33.953125 C 28.601562 -33.734375 28.523438 -33.503906 28.453125 -33.265625 C 28.390625 -33.023438 28.320312 -32.8125 28.25 -32.625 C 28.1875 -32.4375 28.144531 -32.257812 28.125 -32.09375 C 28.101562 -31.925781 28.101562 -31.753906 28.125 -31.578125 C 28.144531 -31.398438 28.113281 -31.234375 28.03125 -31.078125 C 27.957031 -30.929688 27.851562 -30.421875 27.71875 -29.546875 C 27.582031 -28.679688 27.457031 -28.09375 27.34375 -27.78125 C 27.238281 -27.46875 27.171875 -27.1875 27.140625 -26.9375 C 27.109375 -26.6875 27.035156 -26.425781 26.921875 -26.15625 C 26.804688 -25.894531 26.726562 -25.609375 26.6875 -25.296875 C 26.65625 -24.992188 26.515625 -24.40625 26.265625 -23.53125 C 26.015625 -22.664062 25.828125 -22.078125 25.703125 -21.765625 C 25.578125 -21.453125 25.492188 -21.195312 25.453125 -21 C 25.421875 -20.800781 25.316406 -20.515625 25.140625 -20.140625 L 24.65625 -19.640625 L 24.53125 -19.3125 C 24.300781 -19.113281 24.144531 -18.953125 24.0625 -18.828125 C 23.988281 -18.710938 23.851562 -18.644531 23.65625 -18.625 C 23.457031 -18.601562 23.285156 -18.5625 23.140625 -18.5 C 22.992188 -18.4375 22.765625 -18.40625 22.453125 -18.40625 C 22.148438 -18.414062 21.851562 -18.503906 21.5625 -18.671875 C 21.28125 -18.835938 20.984375 -18.863281 20.671875 -18.75 C 20.359375 -18.644531 20.117188 -18.539062 19.953125 -18.4375 C 19.785156 -18.332031 19.570312 -18.300781 19.3125 -18.34375 C 19.0625 -18.382812 18.695312 -18.476562 18.21875 -18.625 C 17.738281 -18.78125 17.25 -19.019531 16.75 -19.34375 C 16.257812 -19.675781 15.46875 -20.210938 14.375 -20.953125 C 13.863281 -21.566406 13.515625 -21.972656 13.328125 -22.171875 C 13.140625 -22.367188 12.953125 -22.609375 12.765625 -22.890625 C 12.578125 -23.179688 12.273438 -23.523438 11.859375 -23.921875 C 11.441406 -24.328125 10.96875 -24.929688 10.4375 -25.734375 C 9.914062 -26.535156 9.585938 -27.132812 9.453125 -27.53125 C 9.328125 -27.9375 9.125 -28.335938 8.84375 -28.734375 C 8.5625 -29.128906 8.347656 -29.585938 8.203125 -30.109375 C 8.066406 -30.628906 7.921875 -30.988281 7.765625 -31.1875 C 7.617188 -31.394531 7.5 -31.707031 7.40625 -32.125 C 7.3125 -32.539062 7.226562 -33.015625 7.15625 -33.546875 C 7.09375 -34.078125 7.070312 -34.546875 7.09375 -34.953125 C 7.113281 -35.367188 7.195312 -35.65625 7.34375 -35.8125 C 7.5 -35.96875 7.644531 -36.21875 7.78125 -36.5625 C 7.988281 -36.582031 8.140625 -36.613281 8.234375 -36.65625 C 8.328125 -36.707031 8.503906 -36.726562 8.765625 -36.71875 C 9.035156 -36.707031 9.332031 -36.597656 9.65625 -36.390625 C 9.976562 -36.191406 10.289062 -36.109375 10.59375 -36.140625 C 10.894531 -36.171875 11.117188 -36.140625 11.265625 -36.046875 C 11.421875 -35.960938 11.648438 -35.863281 11.953125 -35.75 C 12.203125 -35.457031 12.425781 -35.234375 12.625 -35.078125 C 12.832031 -34.929688 13.097656 -34.703125 13.421875 -34.390625 C 13.742188 -34.078125 13.9375 -33.796875 14 -33.546875 C 14.0625 -33.304688 14.195312 -33.125 14.40625 -33 C 14.613281 -32.882812 14.753906 -32.632812 14.828125 -32.25 C 14.898438 -31.875 15.363281 -31.066406 16.21875 -29.828125 C 17.082031 -28.585938 17.65625 -27.800781 17.9375 -27.46875 C 18.226562 -27.144531 18.597656 -26.742188 19.046875 -26.265625 C 19.367188 -25.898438 19.804688 -25.765625 20.359375 -25.859375 L 21.046875 -26.625 C 21.023438 -26.769531 21.113281 -26.992188 21.3125 -27.296875 C 21.519531 -27.597656 21.648438 -27.835938 21.703125 -28.015625 C 21.753906 -28.203125 21.820312 -28.390625 21.90625 -28.578125 L 22.484375 -29.171875 L 22.875 -30.5625 L 23.796875 -31.578125 C 23.804688 -31.828125 23.828125 -32.039062 23.859375 -32.21875 C 23.898438 -32.40625 24.140625 -32.769531 24.578125 -33.3125 C 25.015625 -33.851562 25.234375 -34.285156 25.234375 -34.609375 C 25.242188 -34.941406 25.335938 -35.257812 25.515625 -35.5625 C 25.703125 -35.863281 25.859375 -36.242188 25.984375 -36.703125 C 26.117188 -37.160156 26.472656 -37.789062 27.046875 -38.59375 C 27.628906 -39.40625 27.898438 -39.828125 27.859375 -39.859375 C 27.828125 -39.898438 27.804688 -39.988281 27.796875 -40.125 Z M 1.78125 -35.609375 C 1.882812 -35.554688 2.191406 -35.519531 2.703125 -35.5 C 3.210938 -35.476562 3.554688 -35.40625 3.734375 -35.28125 C 3.921875 -35.15625 4.1875 -35.019531 4.53125 -34.875 C 4.84375 -34.375 5.101562 -34.035156 5.3125 -33.859375 C 5.519531 -33.691406 5.640625 -33.457031 5.671875 -33.15625 C 5.703125 -32.851562 5.769531 -32.550781 5.875 -32.25 C 5.976562 -31.957031 6.039062 -31.585938 6.0625 -31.140625 C 6.09375 -30.703125 6.203125 -30.007812 6.390625 -29.0625 C 6.578125 -28.125 6.6875 -27.34375 6.71875 -26.71875 C 6.75 -26.09375 6.796875 -25.460938 6.859375 -24.828125 C 6.929688 -24.191406 7.035156 -23.796875 7.171875 -23.640625 C 7.304688 -23.492188 7.304688 -23.304688 7.171875 -23.078125 C 7.035156 -22.859375 7.125 -21.992188 7.4375 -20.484375 C 7.757812 -18.984375 7.953125 -17.894531 8.015625 -17.21875 C 8.085938 -16.550781 8.195312 -15.242188 8.34375 -13.296875 C 8.5 -11.347656 8.6875 -9.492188 8.90625 -7.734375 C 9.125 -5.972656 9.164062 -4.921875 9.03125 -4.578125 C 8.90625 -4.242188 8.867188 -3.5625 8.921875 -2.53125 C 8.984375 -1.5 8.9375 -0.914062 8.78125 -0.78125 C 8.632812 -0.644531 8.507812 -0.40625 8.40625 -0.0625 C 8.300781 -0.0078125 8.085938 0.0078125 7.765625 0 C 7.453125 0 7.195312 -0.0625 7 -0.1875 C 6.8125 -0.3125 6.582031 -0.375 6.3125 -0.375 C 6.039062 -0.382812 5.738281 -0.4375 5.40625 -0.53125 C 5.070312 -0.625 4.78125 -0.765625 4.53125 -0.953125 C 4.289062 -1.140625 3.894531 -1.4375 3.34375 -1.84375 C 2.78125 -2.789062 2.382812 -3.40625 2.15625 -3.6875 C 1.925781 -3.96875 1.773438 -4.289062 1.703125 -4.65625 C 1.628906 -5.019531 1.53125 -5.335938 1.40625 -5.609375 C 1.289062 -5.878906 1.1875 -6.285156 1.09375 -6.828125 C 1.007812 -7.378906 0.859375 -8.335938 0.640625 -9.703125 C 0.429688 -11.078125 0.34375 -11.957031 0.375 -12.34375 C 0.414062 -12.726562 0.398438 -13.519531 0.328125 -14.71875 C 0.253906 -15.925781 0.171875 -16.847656 0.078125 -17.484375 C -0.00390625 -18.117188 -0.0546875 -18.65625 -0.078125 -19.09375 C -0.109375 -19.539062 -0.09375 -19.988281 -0.03125 -20.4375 C 0.0195312 -20.894531 0.015625 -21.429688 -0.046875 -22.046875 C -0.109375 -22.671875 -0.128906 -23.3125 -0.109375 -23.96875 C -0.0859375 -24.632812 -0.113281 -25.25 -0.1875 -25.8125 C -0.257812 -26.375 -0.242188 -26.757812 -0.140625 -26.96875 C -0.0351562 -27.1875 -0.015625 -27.804688 -0.078125 -28.828125 C -0.148438 -29.859375 -0.128906 -30.664062 -0.015625 -31.25 C 0.0976562 -31.832031 0.160156 -32.300781 0.171875 -32.65625 C 0.191406 -33.019531 0.234375 -33.304688 0.296875 -33.515625 C 0.367188 -33.722656 0.398438 -33.929688 0.390625 -34.140625 C 0.390625 -34.347656 0.410156 -34.5 0.453125 -34.59375 C 0.503906 -34.6875 0.578125 -34.789062 0.671875 -34.90625 Z M 1.78125 -35.609375 "/></g></g></g><g fill="#ffffff" fill-opacity="1"><g transform="translate(218.414751, 308.401124)"><g><path d="M 15.859375 -40.296875 C 15.941406 -40.265625 16 -40.257812 16.03125 -40.28125 C 16.0625 -40.300781 16.113281 -40.304688 16.1875 -40.296875 C 16.257812 -40.285156 16.316406 -40.253906 16.359375 -40.203125 C 16.398438 -40.148438 16.457031 -40.113281 16.53125 -40.09375 L 16.734375 -40.265625 C 16.847656 -40.203125 16.929688 -40.164062 16.984375 -40.15625 C 17.035156 -40.144531 17.265625 -40.160156 17.671875 -40.203125 C 18.078125 -40.242188 18.425781 -40.195312 18.71875 -40.0625 C 19.019531 -39.9375 19.414062 -39.828125 19.90625 -39.734375 C 20.40625 -39.640625 20.804688 -39.5 21.109375 -39.3125 C 21.410156 -39.132812 21.582031 -39.015625 21.625 -38.953125 C 21.84375 -38.585938 22.082031 -38.351562 22.34375 -38.25 C 22.601562 -38.15625 22.789062 -37.96875 22.90625 -37.6875 C 23.03125 -37.414062 23.132812 -37.125 23.21875 -36.8125 C 23.300781 -36.5 23.296875 -36.285156 23.203125 -36.171875 C 23.117188 -36.054688 23 -35.863281 22.84375 -35.59375 C 22.570312 -35.5 22.316406 -35.507812 22.078125 -35.625 C 22.003906 -35.613281 21.960938 -35.582031 21.953125 -35.53125 C 21.941406 -35.476562 21.832031 -35.445312 21.625 -35.4375 C 21.414062 -35.4375 21.210938 -35.398438 21.015625 -35.328125 C 20.828125 -35.253906 20.632812 -35.207031 20.4375 -35.1875 C 20.25 -35.164062 20.054688 -35.0625 19.859375 -34.875 C 19.660156 -34.695312 19.40625 -34.65625 19.09375 -34.75 C 18.78125 -34.84375 18.535156 -34.765625 18.359375 -34.515625 C 18.191406 -34.265625 18.035156 -34.128906 17.890625 -34.109375 C 17.753906 -34.097656 17.679688 -34.066406 17.671875 -34.015625 C 17.660156 -33.960938 17.585938 -33.90625 17.453125 -33.84375 C 17.328125 -33.582031 17.238281 -33.378906 17.1875 -33.234375 C 17.132812 -33.085938 17.007812 -32.894531 16.8125 -32.65625 C 16.625 -32.425781 16.53125 -32.210938 16.53125 -32.015625 C 16.53125 -31.828125 16.429688 -31.640625 16.234375 -31.453125 C 16.035156 -31.273438 15.882812 -31.035156 15.78125 -30.734375 C 15.675781 -30.429688 15.550781 -30.175781 15.40625 -29.96875 C 15.269531 -29.757812 15.15625 -29.5 15.0625 -29.1875 C 14.976562 -28.882812 14.773438 -28.523438 14.453125 -28.109375 C 14.128906 -27.691406 13.910156 -27.316406 13.796875 -26.984375 C 13.691406 -26.660156 13.5625 -26.390625 13.40625 -26.171875 C 13.257812 -25.960938 13.171875 -25.757812 13.140625 -25.5625 C 13.109375 -25.363281 12.882812 -24.921875 12.46875 -24.234375 C 12.0625 -23.554688 11.863281 -23.164062 11.875 -23.0625 C 11.9375 -23.0625 12.085938 -23.097656 12.328125 -23.171875 C 12.578125 -23.253906 12.832031 -23.300781 13.09375 -23.3125 C 13.363281 -23.320312 13.757812 -23.40625 14.28125 -23.5625 C 14.800781 -23.71875 15.28125 -23.8125 15.71875 -23.84375 C 16.164062 -23.875 16.484375 -23.90625 16.671875 -23.9375 C 16.867188 -23.976562 17.054688 -24.015625 17.234375 -24.046875 C 17.410156 -24.078125 17.5625 -24.132812 17.6875 -24.21875 C 17.820312 -24.3125 18.054688 -24.398438 18.390625 -24.484375 C 18.722656 -24.578125 19.082031 -24.632812 19.46875 -24.65625 C 19.863281 -24.675781 20.109375 -24.742188 20.203125 -24.859375 C 20.296875 -24.972656 20.394531 -25.035156 20.5 -25.046875 C 20.613281 -25.066406 20.804688 -25.054688 21.078125 -25.015625 C 21.347656 -24.972656 21.582031 -25.039062 21.78125 -25.21875 C 21.976562 -25.394531 22.203125 -25.53125 22.453125 -25.625 C 22.703125 -25.726562 22.960938 -25.769531 23.234375 -25.75 C 23.503906 -25.726562 23.832031 -25.617188 24.21875 -25.421875 C 24.601562 -25.222656 24.914062 -25.128906 25.15625 -25.140625 C 25.394531 -25.148438 25.609375 -25.117188 25.796875 -25.046875 C 25.984375 -24.972656 26.140625 -24.890625 26.265625 -24.796875 C 26.460938 -24.253906 26.695312 -23.710938 26.96875 -23.171875 C 26.8125 -23.003906 26.738281 -22.847656 26.75 -22.703125 C 26.65625 -22.554688 26.578125 -22.453125 26.515625 -22.390625 C 26.453125 -22.328125 26.375 -22.289062 26.28125 -22.28125 C 26.195312 -22.269531 26.117188 -22.210938 26.046875 -22.109375 C 25.984375 -22.015625 25.882812 -21.960938 25.75 -21.953125 C 25.613281 -21.941406 25.492188 -21.851562 25.390625 -21.6875 C 25.285156 -21.519531 25.15625 -21.398438 25 -21.328125 C 24.84375 -21.253906 24.613281 -21.113281 24.3125 -20.90625 L 24.140625 -20.953125 L 23.84375 -20.75 L 23.71875 -20.46875 C 23.46875 -20.4375 23.269531 -20.382812 23.125 -20.3125 C 22.988281 -20.25 22.816406 -20.1875 22.609375 -20.125 C 22.410156 -20.070312 22.273438 -20.050781 22.203125 -20.0625 C 22.128906 -20.082031 22.003906 -20.082031 21.828125 -20.0625 L 21.796875 -19.828125 C 21.734375 -19.828125 21.6875 -19.832031 21.65625 -19.84375 C 21.632812 -19.863281 21.5625 -19.785156 21.4375 -19.609375 C 21.3125 -19.441406 21.175781 -19.347656 21.03125 -19.328125 C 20.894531 -19.316406 20.773438 -19.28125 20.671875 -19.21875 C 20.566406 -19.15625 20.460938 -19.117188 20.359375 -19.109375 C 20.253906 -19.097656 20.164062 -19.054688 20.09375 -18.984375 C 20.019531 -18.921875 19.875 -18.890625 19.65625 -18.890625 C 19.4375 -18.890625 19.242188 -18.816406 19.078125 -18.671875 C 18.910156 -18.523438 18.773438 -18.445312 18.671875 -18.4375 C 18.566406 -18.425781 18.441406 -18.429688 18.296875 -18.453125 C 18.148438 -18.472656 18.050781 -18.453125 18 -18.390625 C 17.945312 -18.328125 17.863281 -18.273438 17.75 -18.234375 C 17.632812 -18.191406 17.492188 -18.195312 17.328125 -18.25 C 17.160156 -18.300781 17.023438 -18.3125 16.921875 -18.28125 C 16.816406 -18.25 16.726562 -18.238281 16.65625 -18.25 C 16.582031 -18.257812 16.472656 -18.296875 16.328125 -18.359375 L 16.296875 -18.1875 C 15.953125 -18.050781 15.625 -18.035156 15.3125 -18.140625 L 15.140625 -17.921875 C 15.015625 -17.960938 14.925781 -17.988281 14.875 -18 C 14.820312 -18.019531 14.734375 -17.988281 14.609375 -17.90625 C 14.492188 -17.820312 14.285156 -17.765625 13.984375 -17.734375 C 13.691406 -17.703125 13.429688 -17.679688 13.203125 -17.671875 C 12.972656 -17.671875 12.738281 -17.6875 12.5 -17.71875 C 12.269531 -17.75 12.085938 -17.78125 11.953125 -17.8125 C 11.828125 -17.851562 11.6875 -17.863281 11.53125 -17.84375 C 11.375 -17.832031 11.234375 -17.863281 11.109375 -17.9375 C 10.992188 -18.019531 10.875 -18.054688 10.75 -18.046875 C 10.632812 -18.035156 10.53125 -18.039062 10.4375 -18.0625 C 10.34375 -18.09375 10.21875 -18.132812 10.0625 -18.1875 L 9.859375 -18.0625 C 9.753906 -17.800781 9.664062 -17.628906 9.59375 -17.546875 C 9.53125 -17.460938 9.5 -17.351562 9.5 -17.21875 C 9.5 -17.082031 9.4375 -16.875 9.3125 -16.59375 C 9.195312 -16.3125 9.125 -16.050781 9.09375 -15.8125 C 9.070312 -15.582031 9.019531 -15.425781 8.9375 -15.34375 C 8.851562 -15.257812 8.816406 -15.164062 8.828125 -15.0625 C 8.835938 -14.957031 8.820312 -14.882812 8.78125 -14.84375 C 8.738281 -14.800781 8.710938 -14.722656 8.703125 -14.609375 C 8.691406 -14.503906 8.640625 -14.378906 8.546875 -14.234375 C 8.460938 -14.085938 8.429688 -13.890625 8.453125 -13.640625 C 8.484375 -13.390625 8.476562 -13.195312 8.4375 -13.0625 C 8.394531 -12.9375 8.367188 -12.789062 8.359375 -12.625 C 8.359375 -12.46875 8.34375 -12.304688 8.3125 -12.140625 C 8.28125 -11.972656 8.242188 -11.519531 8.203125 -10.78125 C 8.171875 -10.050781 8.226562 -9.59375 8.375 -9.40625 C 8.519531 -9.226562 8.71875 -8.972656 8.96875 -8.640625 C 9.269531 -8.492188 9.503906 -8.367188 9.671875 -8.265625 C 9.847656 -8.160156 10.15625 -8.113281 10.59375 -8.125 C 11.039062 -8.132812 11.273438 -8.128906 11.296875 -8.109375 C 11.328125 -8.097656 11.394531 -8.0625 11.5 -8 C 11.601562 -8.082031 11.671875 -8.144531 11.703125 -8.1875 C 11.734375 -8.226562 11.828125 -8.253906 11.984375 -8.265625 C 12.148438 -8.285156 12.285156 -8.328125 12.390625 -8.390625 C 12.503906 -8.453125 12.617188 -8.460938 12.734375 -8.421875 C 12.847656 -8.378906 12.992188 -8.375 13.171875 -8.40625 C 13.347656 -8.445312 13.5 -8.523438 13.625 -8.640625 C 13.75 -8.765625 14.015625 -8.847656 14.421875 -8.890625 C 14.835938 -8.929688 15.269531 -9 15.71875 -9.09375 C 16.164062 -9.195312 16.484375 -9.300781 16.671875 -9.40625 C 16.867188 -9.519531 17.046875 -9.582031 17.203125 -9.59375 C 17.367188 -9.613281 17.53125 -9.695312 17.6875 -9.84375 C 17.851562 -9.988281 18.097656 -10.03125 18.421875 -9.96875 C 18.742188 -9.914062 18.976562 -9.976562 19.125 -10.15625 C 19.269531 -10.332031 19.507812 -10.425781 19.84375 -10.4375 C 20.1875 -10.457031 20.507812 -10.546875 20.8125 -10.703125 C 21.113281 -10.859375 21.351562 -10.9375 21.53125 -10.9375 C 21.707031 -10.9375 21.875 -10.953125 22.03125 -10.984375 C 22.195312 -11.023438 22.347656 -11.078125 22.484375 -11.140625 C 22.617188 -11.203125 22.769531 -11.269531 22.9375 -11.34375 C 23.113281 -11.425781 23.304688 -11.46875 23.515625 -11.46875 C 23.722656 -11.46875 23.898438 -11.519531 24.046875 -11.625 C 24.203125 -11.726562 24.441406 -11.859375 24.765625 -12.015625 C 25.097656 -12.179688 25.394531 -12.285156 25.65625 -12.328125 C 25.914062 -12.378906 26.132812 -12.546875 26.3125 -12.828125 C 26.5 -13.117188 26.71875 -13.273438 26.96875 -13.296875 C 27.21875 -13.328125 27.398438 -13.375 27.515625 -13.4375 C 27.640625 -13.5 27.8125 -13.519531 28.03125 -13.5 C 28.25 -13.488281 28.476562 -13.425781 28.71875 -13.3125 C 28.96875 -13.207031 29.222656 -13.15625 29.484375 -13.15625 C 29.742188 -13.164062 29.929688 -13.113281 30.046875 -13 C 30.171875 -12.894531 30.367188 -12.785156 30.640625 -12.671875 C 30.753906 -12.503906 30.878906 -12.367188 31.015625 -12.265625 C 31.160156 -12.171875 31.296875 -11.992188 31.421875 -11.734375 C 31.554688 -11.484375 31.65625 -11.210938 31.71875 -10.921875 C 31.789062 -10.628906 31.835938 -10.359375 31.859375 -10.109375 C 31.890625 -9.859375 31.882812 -9.503906 31.84375 -9.046875 C 31.800781 -8.597656 31.707031 -8.273438 31.5625 -8.078125 C 31.414062 -7.890625 31.320312 -7.710938 31.28125 -7.546875 C 31.25 -7.390625 31.171875 -7.238281 31.046875 -7.09375 L 30.234375 -6.1875 L 30.21875 -5.90625 C 29.957031 -5.695312 29.679688 -5.582031 29.390625 -5.5625 L 29.21875 -5.21875 L 28.796875 -4.90625 L 28.765625 -4.75 C 28.390625 -4.5625 28.125 -4.441406 27.96875 -4.390625 C 27.820312 -4.347656 27.550781 -4.242188 27.15625 -4.078125 C 26.757812 -3.910156 26.507812 -3.820312 26.40625 -3.8125 L 26.15625 -3.578125 C 26.09375 -3.523438 26.046875 -3.460938 26.015625 -3.390625 C 25.984375 -3.328125 25.878906 -3.285156 25.703125 -3.265625 C 25.523438 -3.242188 25.257812 -3.21875 24.90625 -3.1875 L 24.9375 -2.859375 L 24.765625 -3 C 24.734375 -2.882812 24.695312 -2.816406 24.65625 -2.796875 C 24.613281 -2.773438 24.5 -2.765625 24.3125 -2.765625 C 24.132812 -2.765625 23.847656 -2.796875 23.453125 -2.859375 L 23.5 -2.390625 L 23.15625 -2.515625 C 22.820312 -2.296875 22.472656 -2.238281 22.109375 -2.34375 L 21.828125 -2 C 21.578125 -1.9375 21.34375 -1.945312 21.125 -2.03125 L 21.09375 -1.875 C 21.050781 -1.894531 21.019531 -1.921875 21 -1.953125 C 20.976562 -1.992188 20.882812 -1.992188 20.71875 -1.953125 C 20.5625 -1.921875 20.320312 -1.890625 20 -1.859375 L 19.875 -1.640625 C 19.769531 -1.578125 19.660156 -1.566406 19.546875 -1.609375 C 19.429688 -1.660156 19.300781 -1.6875 19.15625 -1.6875 C 19.019531 -1.695312 18.878906 -1.738281 18.734375 -1.8125 C 18.585938 -1.882812 18.476562 -1.914062 18.40625 -1.90625 C 18.332031 -1.894531 18.265625 -1.90625 18.203125 -1.9375 C 18.148438 -1.96875 18.09375 -1.960938 18.03125 -1.921875 L 18.046875 -1.765625 L 17.515625 -1.65625 L 17.53125 -1.4375 C 17.195312 -1.507812 16.898438 -1.441406 16.640625 -1.234375 C 16.566406 -1.265625 16.507812 -1.304688 16.46875 -1.359375 C 16.425781 -1.410156 16.347656 -1.445312 16.234375 -1.46875 C 16.128906 -1.5 15.988281 -1.507812 15.8125 -1.5 C 15.644531 -1.5 15.5 -1.457031 15.375 -1.375 C 15.257812 -1.300781 15.125 -1.234375 14.96875 -1.171875 C 14.8125 -1.117188 14.628906 -1.0625 14.421875 -1 L 14.296875 -1.171875 C 14.222656 -1.191406 14.125 -1.175781 14 -1.125 C 13.875 -1.070312 13.726562 -1.046875 13.5625 -1.046875 C 13.40625 -1.054688 13.269531 -1.035156 13.15625 -0.984375 C 13.050781 -0.941406 12.96875 -0.925781 12.90625 -0.9375 C 12.84375 -0.945312 12.78125 -0.910156 12.71875 -0.828125 L 12.4375 -0.90625 L 12.25 -0.78125 C 12.09375 -0.832031 11.972656 -0.890625 11.890625 -0.953125 C 11.816406 -1.023438 11.6875 -1.070312 11.5 -1.09375 C 11.320312 -1.113281 11.195312 -1.117188 11.125 -1.109375 C 11.0625 -1.097656 10.941406 -1.066406 10.765625 -1.015625 C 10.597656 -0.960938 10.40625 -0.941406 10.1875 -0.953125 C 9.976562 -0.960938 9.828125 -0.988281 9.734375 -1.03125 C 9.640625 -1.082031 9.441406 -1.109375 9.140625 -1.109375 C 8.835938 -1.117188 8.226562 -1.296875 7.3125 -1.640625 C 6.394531 -1.984375 5.734375 -2.28125 5.328125 -2.53125 C 4.929688 -2.78125 4.421875 -3.191406 3.796875 -3.765625 C 3.285156 -4.253906 2.925781 -4.597656 2.71875 -4.796875 C 2.519531 -5.003906 2.328125 -5.234375 2.140625 -5.484375 C 1.953125 -5.742188 1.828125 -5.976562 1.765625 -6.1875 C 1.703125 -6.394531 1.585938 -6.597656 1.421875 -6.796875 C 1.265625 -7.003906 1.160156 -7.234375 1.109375 -7.484375 C 1.066406 -7.742188 1.003906 -7.945312 0.921875 -8.09375 C 0.835938 -8.25 0.769531 -8.46875 0.71875 -8.75 C 0.664062 -9.039062 0.617188 -9.457031 0.578125 -10 C 0.546875 -10.550781 0.585938 -11.035156 0.703125 -11.453125 C 0.816406 -11.878906 0.863281 -12.207031 0.84375 -12.4375 C 0.820312 -12.675781 0.863281 -12.882812 0.96875 -13.0625 C 1.070312 -13.25 1.125 -13.441406 1.125 -13.640625 C 1.125 -13.835938 1.15625 -14.070312 1.21875 -14.34375 C 1.28125 -14.625 1.363281 -14.867188 1.46875 -15.078125 C 1.570312 -15.285156 1.640625 -15.5 1.671875 -15.71875 C 1.703125 -15.9375 1.785156 -16.144531 1.921875 -16.34375 C 2.066406 -16.550781 2.132812 -16.753906 2.125 -16.953125 C 2.125 -17.160156 2.21875 -17.351562 2.40625 -17.53125 C 2.601562 -17.71875 2.710938 -17.890625 2.734375 -18.046875 C 2.753906 -18.210938 2.816406 -18.363281 2.921875 -18.5 C 3.035156 -18.632812 3.109375 -18.785156 3.140625 -18.953125 C 3.179688 -19.117188 3.375 -19.414062 3.71875 -19.84375 C 4.070312 -20.269531 4.296875 -20.585938 4.390625 -20.796875 C 4.484375 -21.003906 4.59375 -21.175781 4.71875 -21.3125 C 4.84375 -21.457031 4.90625 -21.585938 4.90625 -21.703125 C 4.914062 -21.828125 4.9375 -21.921875 4.96875 -21.984375 C 5 -22.046875 5.054688 -22.113281 5.140625 -22.1875 L 5.390625 -22.328125 L 5.609375 -22.8125 L 5.8125 -22.953125 L 5.984375 -23.453125 L 6.515625 -24.046875 C 6.566406 -24.191406 6.769531 -24.476562 7.125 -24.90625 C 7.476562 -25.34375 7.78125 -25.785156 8.03125 -26.234375 C 8.28125 -26.679688 8.554688 -27.082031 8.859375 -27.4375 C 9.171875 -27.800781 9.492188 -28.234375 9.828125 -28.734375 C 10.972656 -30.097656 12.15625 -31.445312 13.375 -32.78125 L 13.359375 -33 C 13.003906 -32.894531 12.679688 -32.914062 12.390625 -33.0625 L 12.328125 -32.734375 L 12.109375 -32.65625 L 11.90625 -32.46875 C 11.539062 -32.25 11.148438 -32.207031 10.734375 -32.34375 L 10.765625 -32.03125 C 10.335938 -31.957031 9.988281 -31.9375 9.71875 -31.96875 L 9.578125 -31.75 L 9.296875 -31.84375 L 9.09375 -31.65625 C 8.957031 -31.675781 8.835938 -31.695312 8.734375 -31.71875 C 8.640625 -31.75 8.539062 -31.757812 8.4375 -31.75 C 8.332031 -31.738281 8.21875 -31.707031 8.09375 -31.65625 C 7.976562 -31.601562 7.875 -31.597656 7.78125 -31.640625 C 7.6875 -31.691406 7.566406 -31.71875 7.421875 -31.71875 C 7.285156 -31.71875 7.132812 -31.753906 6.96875 -31.828125 C 6.800781 -31.898438 6.546875 -31.914062 6.203125 -31.875 C 5.867188 -31.84375 5.601562 -31.84375 5.40625 -31.875 C 5.207031 -31.90625 5.03125 -31.96875 4.875 -32.0625 C 4.71875 -32.15625 4.507812 -32.28125 4.25 -32.4375 C 3.988281 -32.59375 3.820312 -32.71875 3.75 -32.8125 C 3.6875 -32.90625 3.640625 -33.023438 3.609375 -33.171875 C 3.578125 -33.316406 3.515625 -33.414062 3.421875 -33.46875 C 3.328125 -33.53125 3.238281 -33.691406 3.15625 -33.953125 C 3.082031 -34.210938 3.046875 -34.476562 3.046875 -34.75 C 3.054688 -35.019531 3.109375 -35.203125 3.203125 -35.296875 C 3.304688 -35.398438 3.398438 -35.53125 3.484375 -35.6875 C 3.785156 -35.851562 3.984375 -35.976562 4.078125 -36.0625 C 4.171875 -36.144531 4.28125 -36.191406 4.40625 -36.203125 C 4.53125 -36.222656 4.640625 -36.289062 4.734375 -36.40625 C 4.835938 -36.519531 5.066406 -36.648438 5.421875 -36.796875 C 5.785156 -36.941406 6.023438 -37.054688 6.140625 -37.140625 C 6.265625 -37.222656 6.394531 -37.269531 6.53125 -37.28125 C 6.675781 -37.300781 6.789062 -37.375 6.875 -37.5 C 6.96875 -37.632812 7.125 -37.765625 7.34375 -37.890625 C 7.5625 -38.023438 7.789062 -38.09375 8.03125 -38.09375 C 8.269531 -38.101562 8.429688 -38.1875 8.515625 -38.34375 C 8.609375 -38.5 8.785156 -38.570312 9.046875 -38.5625 C 9.304688 -38.550781 9.519531 -38.609375 9.6875 -38.734375 C 9.863281 -38.859375 10.039062 -38.9375 10.21875 -38.96875 C 10.394531 -39.007812 10.5 -39.039062 10.53125 -39.0625 C 10.5625 -39.082031 10.609375 -39.132812 10.671875 -39.21875 L 10.796875 -39.0625 C 10.972656 -39.113281 11.082031 -39.175781 11.125 -39.25 C 11.164062 -39.332031 11.3125 -39.40625 11.5625 -39.46875 C 11.8125 -39.53125 12.566406 -39.660156 13.828125 -39.859375 C 15.085938 -40.054688 15.722656 -40.164062 15.734375 -40.1875 C 15.753906 -40.21875 15.796875 -40.253906 15.859375 -40.296875 Z M 15.859375 -40.296875 "/></g></g></g><g fill="#ffffff" fill-opacity="1"><g transform="translate(252.558275, 304.862698)"><g><path d="M 28.625 -40.96875 C 28.863281 -40.988281 29.039062 -41.015625 29.15625 -41.046875 C 29.28125 -41.078125 29.472656 -41.015625 29.734375 -40.859375 C 30.003906 -40.703125 30.269531 -40.625 30.53125 -40.625 C 30.800781 -40.625 31.113281 -40.539062 31.46875 -40.375 C 31.832031 -40.207031 32.128906 -40.023438 32.359375 -39.828125 C 32.597656 -39.628906 32.992188 -39.320312 33.546875 -38.90625 C 34.035156 -38.3125 34.382812 -37.910156 34.59375 -37.703125 C 34.8125 -37.503906 35.046875 -37.144531 35.296875 -36.625 C 35.554688 -36.113281 35.859375 -35.398438 36.203125 -34.484375 C 36.546875 -33.566406 36.75 -32.800781 36.8125 -32.1875 C 36.875 -31.570312 36.972656 -31.164062 37.109375 -30.96875 C 37.253906 -30.769531 37.332031 -30.523438 37.34375 -30.234375 C 37.363281 -29.953125 37.441406 -29.679688 37.578125 -29.421875 C 37.710938 -29.171875 37.800781 -28.71875 37.84375 -28.0625 C 37.894531 -27.40625 38 -26.925781 38.15625 -26.625 C 38.3125 -26.320312 38.4375 -25.882812 38.53125 -25.3125 C 38.632812 -24.75 38.6875 -24.359375 38.6875 -24.140625 C 38.6875 -23.929688 38.722656 -23.75 38.796875 -23.59375 C 38.867188 -23.445312 38.867188 -23.289062 38.796875 -23.125 C 38.722656 -22.957031 38.796875 -22.660156 39.015625 -22.234375 C 39.242188 -21.816406 39.4375 -21.035156 39.59375 -19.890625 C 39.75 -18.742188 39.851562 -17.722656 39.90625 -16.828125 C 39.957031 -15.941406 40.128906 -14.765625 40.421875 -13.296875 C 40.722656 -11.835938 40.789062 -10.867188 40.625 -10.390625 C 40.457031 -9.921875 40.410156 -9.492188 40.484375 -9.109375 C 40.566406 -8.734375 40.597656 -8.359375 40.578125 -7.984375 C 40.566406 -7.609375 40.523438 -7.328125 40.453125 -7.140625 C 40.378906 -6.953125 40.269531 -6.757812 40.125 -6.5625 C 39.988281 -6.363281 39.875 -6.191406 39.78125 -6.046875 C 39.394531 -5.960938 39.078125 -5.90625 38.828125 -5.875 C 38.585938 -5.851562 38.300781 -5.890625 37.96875 -5.984375 C 37.632812 -6.078125 37.253906 -6.101562 36.828125 -6.0625 C 36.398438 -6.019531 36.023438 -6.085938 35.703125 -6.265625 C 35.390625 -6.453125 35.085938 -6.632812 34.796875 -6.8125 C 34.515625 -7 34.117188 -7.304688 33.609375 -7.734375 C 33.203125 -8.503906 32.914062 -9.03125 32.75 -9.3125 C 32.582031 -9.601562 32.4375 -10.003906 32.3125 -10.515625 C 32.1875 -11.035156 32.09375 -11.582031 32.03125 -12.15625 C 31.96875 -12.726562 31.894531 -13.148438 31.8125 -13.421875 C 31.738281 -13.691406 31.734375 -13.921875 31.796875 -14.109375 C 31.867188 -14.296875 31.859375 -14.484375 31.765625 -14.671875 C 31.671875 -14.867188 31.609375 -15.050781 31.578125 -15.21875 C 31.546875 -15.394531 31.566406 -15.566406 31.640625 -15.734375 C 31.710938 -15.910156 31.691406 -16.238281 31.578125 -16.71875 C 31.472656 -17.207031 31.40625 -17.921875 31.375 -18.859375 C 31.351562 -19.804688 31.265625 -20.953125 31.109375 -22.296875 C 30.953125 -23.640625 30.929688 -24.46875 31.046875 -24.78125 C 31.171875 -25.101562 31.160156 -25.398438 31.015625 -25.671875 C 30.878906 -25.941406 30.753906 -26.453125 30.640625 -27.203125 C 30.523438 -27.960938 30.523438 -28.488281 30.640625 -28.78125 C 30.765625 -29.082031 30.75 -29.40625 30.59375 -29.75 C 30.445312 -30.09375 30.382812 -30.691406 30.40625 -31.546875 C 30.4375 -32.410156 30.347656 -32.90625 30.140625 -33.03125 C 29.941406 -33.15625 29.863281 -33.359375 29.90625 -33.640625 C 29.957031 -33.929688 29.925781 -34.140625 29.8125 -34.265625 C 29.707031 -34.398438 29.597656 -34.515625 29.484375 -34.609375 C 29.367188 -34.710938 29.25 -34.847656 29.125 -35.015625 C 28.988281 -34.890625 28.90625 -34.734375 28.875 -34.546875 C 28.84375 -34.367188 28.78125 -34.171875 28.6875 -33.953125 C 28.601562 -33.734375 28.523438 -33.503906 28.453125 -33.265625 C 28.390625 -33.023438 28.320312 -32.8125 28.25 -32.625 C 28.1875 -32.4375 28.144531 -32.257812 28.125 -32.09375 C 28.101562 -31.925781 28.101562 -31.753906 28.125 -31.578125 C 28.144531 -31.398438 28.113281 -31.234375 28.03125 -31.078125 C 27.957031 -30.929688 27.851562 -30.421875 27.71875 -29.546875 C 27.582031 -28.679688 27.457031 -28.09375 27.34375 -27.78125 C 27.238281 -27.46875 27.171875 -27.1875 27.140625 -26.9375 C 27.109375 -26.6875 27.035156 -26.425781 26.921875 -26.15625 C 26.804688 -25.894531 26.726562 -25.609375 26.6875 -25.296875 C 26.65625 -24.992188 26.515625 -24.40625 26.265625 -23.53125 C 26.015625 -22.664062 25.828125 -22.078125 25.703125 -21.765625 C 25.578125 -21.453125 25.492188 -21.195312 25.453125 -21 C 25.421875 -20.800781 25.316406 -20.515625 25.140625 -20.140625 L 24.65625 -19.640625 L 24.53125 -19.3125 C 24.300781 -19.113281 24.144531 -18.953125 24.0625 -18.828125 C 23.988281 -18.710938 23.851562 -18.644531 23.65625 -18.625 C 23.457031 -18.601562 23.285156 -18.5625 23.140625 -18.5 C 22.992188 -18.4375 22.765625 -18.40625 22.453125 -18.40625 C 22.148438 -18.414062 21.851562 -18.503906 21.5625 -18.671875 C 21.28125 -18.835938 20.984375 -18.863281 20.671875 -18.75 C 20.359375 -18.644531 20.117188 -18.539062 19.953125 -18.4375 C 19.785156 -18.332031 19.570312 -18.300781 19.3125 -18.34375 C 19.0625 -18.382812 18.695312 -18.476562 18.21875 -18.625 C 17.738281 -18.78125 17.25 -19.019531 16.75 -19.34375 C 16.257812 -19.675781 15.46875 -20.210938 14.375 -20.953125 C 13.863281 -21.566406 13.515625 -21.972656 13.328125 -22.171875 C 13.140625 -22.367188 12.953125 -22.609375 12.765625 -22.890625 C 12.578125 -23.179688 12.273438 -23.523438 11.859375 -23.921875 C 11.441406 -24.328125 10.96875 -24.929688 10.4375 -25.734375 C 9.914062 -26.535156 9.585938 -27.132812 9.453125 -27.53125 C 9.328125 -27.9375 9.125 -28.335938 8.84375 -28.734375 C 8.5625 -29.128906 8.347656 -29.585938 8.203125 -30.109375 C 8.066406 -30.628906 7.921875 -30.988281 7.765625 -31.1875 C 7.617188 -31.394531 7.5 -31.707031 7.40625 -32.125 C 7.3125 -32.539062 7.226562 -33.015625 7.15625 -33.546875 C 7.09375 -34.078125 7.070312 -34.546875 7.09375 -34.953125 C 7.113281 -35.367188 7.195312 -35.65625 7.34375 -35.8125 C 7.5 -35.96875 7.644531 -36.21875 7.78125 -36.5625 C 7.988281 -36.582031 8.140625 -36.613281 8.234375 -36.65625 C 8.328125 -36.707031 8.503906 -36.726562 8.765625 -36.71875 C 9.035156 -36.707031 9.332031 -36.597656 9.65625 -36.390625 C 9.976562 -36.191406 10.289062 -36.109375 10.59375 -36.140625 C 10.894531 -36.171875 11.117188 -36.140625 11.265625 -36.046875 C 11.421875 -35.960938 11.648438 -35.863281 11.953125 -35.75 C 12.203125 -35.457031 12.425781 -35.234375 12.625 -35.078125 C 12.832031 -34.929688 13.097656 -34.703125 13.421875 -34.390625 C 13.742188 -34.078125 13.9375 -33.796875 14 -33.546875 C 14.0625 -33.304688 14.195312 -33.125 14.40625 -33 C 14.613281 -32.882812 14.753906 -32.632812 14.828125 -32.25 C 14.898438 -31.875 15.363281 -31.066406 16.21875 -29.828125 C 17.082031 -28.585938 17.65625 -27.800781 17.9375 -27.46875 C 18.226562 -27.144531 18.597656 -26.742188 19.046875 -26.265625 C 19.367188 -25.898438 19.804688 -25.765625 20.359375 -25.859375 L 21.046875 -26.625 C 21.023438 -26.769531 21.113281 -26.992188 21.3125 -27.296875 C 21.519531 -27.597656 21.648438 -27.835938 21.703125 -28.015625 C 21.753906 -28.203125 21.820312 -28.390625 21.90625 -28.578125 L 22.484375 -29.171875 L 22.875 -30.5625 L 23.796875 -31.578125 C 23.804688 -31.828125 23.828125 -32.039062 23.859375 -32.21875 C 23.898438 -32.40625 24.140625 -32.769531 24.578125 -33.3125 C 25.015625 -33.851562 25.234375 -34.285156 25.234375 -34.609375 C 25.242188 -34.941406 25.335938 -35.257812 25.515625 -35.5625 C 25.703125 -35.863281 25.859375 -36.242188 25.984375 -36.703125 C 26.117188 -37.160156 26.472656 -37.789062 27.046875 -38.59375 C 27.628906 -39.40625 27.898438 -39.828125 27.859375 -39.859375 C 27.828125 -39.898438 27.804688 -39.988281 27.796875 -40.125 Z M 1.78125 -35.609375 C 1.882812 -35.554688 2.191406 -35.519531 2.703125 -35.5 C 3.210938 -35.476562 3.554688 -35.40625 3.734375 -35.28125 C 3.921875 -35.15625 4.1875 -35.019531 4.53125 -34.875 C 4.84375 -34.375 5.101562 -34.035156 5.3125 -33.859375 C 5.519531 -33.691406 5.640625 -33.457031 5.671875 -33.15625 C 5.703125 -32.851562 5.769531 -32.550781 5.875 -32.25 C 5.976562 -31.957031 6.039062 -31.585938 6.0625 -31.140625 C 6.09375 -30.703125 6.203125 -30.007812 6.390625 -29.0625 C 6.578125 -28.125 6.6875 -27.34375 6.71875 -26.71875 C 6.75 -26.09375 6.796875 -25.460938 6.859375 -24.828125 C 6.929688 -24.191406 7.035156 -23.796875 7.171875 -23.640625 C 7.304688 -23.492188 7.304688 -23.304688 7.171875 -23.078125 C 7.035156 -22.859375 7.125 -21.992188 7.4375 -20.484375 C 7.757812 -18.984375 7.953125 -17.894531 8.015625 -17.21875 C 8.085938 -16.550781 8.195312 -15.242188 8.34375 -13.296875 C 8.5 -11.347656 8.6875 -9.492188 8.90625 -7.734375 C 9.125 -5.972656 9.164062 -4.921875 9.03125 -4.578125 C 8.90625 -4.242188 8.867188 -3.5625 8.921875 -2.53125 C 8.984375 -1.5 8.9375 -0.914062 8.78125 -0.78125 C 8.632812 -0.644531 8.507812 -0.40625 8.40625 -0.0625 C 8.300781 -0.0078125 8.085938 0.0078125 7.765625 0 C 7.453125 0 7.195312 -0.0625 7 -0.1875 C 6.8125 -0.3125 6.582031 -0.375 6.3125 -0.375 C 6.039062 -0.382812 5.738281 -0.4375 5.40625 -0.53125 C 5.070312 -0.625 4.78125 -0.765625 4.53125 -0.953125 C 4.289062 -1.140625 3.894531 -1.4375 3.34375 -1.84375 C 2.78125 -2.789062 2.382812 -3.40625 2.15625 -3.6875 C 1.925781 -3.96875 1.773438 -4.289062 1.703125 -4.65625 C 1.628906 -5.019531 1.53125 -5.335938 1.40625 -5.609375 C 1.289062 -5.878906 1.1875 -6.285156 1.09375 -6.828125 C 1.007812 -7.378906 0.859375 -8.335938 0.640625 -9.703125 C 0.429688 -11.078125 0.34375 -11.957031 0.375 -12.34375 C 0.414062 -12.726562 0.398438 -13.519531 0.328125 -14.71875 C 0.253906 -15.925781 0.171875 -16.847656 0.078125 -17.484375 C -0.00390625 -18.117188 -0.0546875 -18.65625 -0.078125 -19.09375 C -0.109375 -19.539062 -0.09375 -19.988281 -0.03125 -20.4375 C 0.0195312 -20.894531 0.015625 -21.429688 -0.046875 -22.046875 C -0.109375 -22.671875 -0.128906 -23.3125 -0.109375 -23.96875 C -0.0859375 -24.632812 -0.113281 -25.25 -0.1875 -25.8125 C -0.257812 -26.375 -0.242188 -26.757812 -0.140625 -26.96875 C -0.0351562 -27.1875 -0.015625 -27.804688 -0.078125 -28.828125 C -0.148438 -29.859375 -0.128906 -30.664062 -0.015625 -31.25 C 0.0976562 -31.832031 0.160156 -32.300781 0.171875 -32.65625 C 0.191406 -33.019531 0.234375 -33.304688 0.296875 -33.515625 C 0.367188 -33.722656 0.398438 -33.929688 0.390625 -34.140625 C 0.390625 -34.347656 0.410156 -34.5 0.453125 -34.59375 C 0.503906 -34.6875 0.578125 -34.789062 0.671875 -34.90625 Z M 1.78125 -35.609375 "/></g></g></g><g fill="#ffffff" fill-opacity="1"><g transform="translate(295.608805, 300.401205)"><g><path d="M 10.875 -38.265625 C 11.019531 -38.285156 11.144531 -38.304688 11.25 -38.328125 C 11.351562 -38.359375 11.515625 -38.359375 11.734375 -38.328125 C 11.953125 -38.296875 12.335938 -38.332031 12.890625 -38.4375 C 13.453125 -38.550781 13.921875 -38.609375 14.296875 -38.609375 C 14.679688 -38.617188 14.960938 -38.585938 15.140625 -38.515625 C 15.316406 -38.441406 15.566406 -38.414062 15.890625 -38.4375 C 16.222656 -38.457031 16.6875 -38.347656 17.28125 -38.109375 C 17.875 -37.867188 18.332031 -37.65625 18.65625 -37.46875 C 18.976562 -37.289062 19.410156 -37.03125 19.953125 -36.6875 C 20.546875 -36.144531 21.003906 -35.753906 21.328125 -35.515625 C 21.648438 -35.285156 22.035156 -34.878906 22.484375 -34.296875 C 22.941406 -33.722656 23.328125 -33.140625 23.640625 -32.546875 C 23.960938 -31.953125 24.253906 -31.359375 24.515625 -30.765625 C 24.785156 -30.171875 24.9375 -29.6875 24.96875 -29.3125 C 25.007812 -28.9375 25.101562 -28.59375 25.25 -28.28125 C 25.394531 -27.976562 25.492188 -27.5625 25.546875 -27.03125 C 25.597656 -26.5 25.703125 -25.921875 25.859375 -25.296875 C 26.015625 -24.671875 26.054688 -24.203125 25.984375 -23.890625 C 25.910156 -23.578125 25.941406 -23.25 26.078125 -22.90625 C 26.222656 -22.5625 26.265625 -22.164062 26.203125 -21.71875 C 26.148438 -21.269531 26.140625 -20.929688 26.171875 -20.703125 C 26.210938 -20.472656 26.234375 -20.257812 26.234375 -20.0625 C 26.242188 -19.863281 26.210938 -19.660156 26.140625 -19.453125 C 26.066406 -19.242188 26.039062 -18.929688 26.0625 -18.515625 C 26.09375 -18.097656 26.09375 -17.6875 26.0625 -17.28125 C 26.039062 -16.882812 25.976562 -16.609375 25.875 -16.453125 C 25.769531 -16.296875 25.707031 -16.144531 25.6875 -16 C 25.664062 -15.863281 25.671875 -15.707031 25.703125 -15.53125 C 25.734375 -15.351562 25.679688 -15.203125 25.546875 -15.078125 C 25.421875 -14.960938 25.378906 -14.726562 25.421875 -14.375 C 25.460938 -14.019531 25.367188 -13.6875 25.140625 -13.375 C 24.921875 -13.070312 24.769531 -12.707031 24.6875 -12.28125 C 24.601562 -11.863281 24.425781 -11.40625 24.15625 -10.90625 C 23.894531 -10.414062 23.660156 -9.875 23.453125 -9.28125 C 23.253906 -8.695312 23.054688 -8.285156 22.859375 -8.046875 C 22.671875 -7.804688 22.398438 -7.4375 22.046875 -6.9375 L 21.75 -6.796875 C 21.082031 -5.703125 20.367188 -4.679688 19.609375 -3.734375 C 19.210938 -3.421875 18.914062 -3.171875 18.71875 -2.984375 C 18.53125 -2.804688 18.304688 -2.660156 18.046875 -2.546875 C 17.785156 -2.429688 17.5 -2.316406 17.1875 -2.203125 C 16.875 -2.097656 16.546875 -1.96875 16.203125 -1.8125 C 15.867188 -1.65625 15.070312 -1.519531 13.8125 -1.40625 C 12.5625 -1.289062 11.65625 -1.226562 11.09375 -1.21875 C 10.539062 -1.21875 10.019531 -1.3125 9.53125 -1.5 C 9.050781 -1.6875 8.640625 -1.894531 8.296875 -2.125 C 7.953125 -2.351562 7.734375 -2.46875 7.640625 -2.46875 C 7.554688 -2.476562 7.457031 -2.5 7.34375 -2.53125 L 7.0625 -2.765625 C 6.425781 -3.015625 5.863281 -3.40625 5.375 -3.9375 C 4.90625 -4.425781 4.445312 -4.921875 4 -5.421875 C 3.550781 -5.929688 3.257812 -6.285156 3.125 -6.484375 C 3 -6.691406 2.832031 -6.914062 2.625 -7.15625 C 2.425781 -7.40625 2.300781 -7.582031 2.25 -7.6875 C 2.207031 -7.789062 2.125 -7.90625 2 -8.03125 C 1.882812 -8.164062 1.675781 -8.519531 1.375 -9.09375 C 1.082031 -9.675781 0.945312 -10.132812 0.96875 -10.46875 C 0.988281 -10.8125 0.914062 -11.007812 0.75 -11.0625 C 0.582031 -11.113281 0.40625 -11.863281 0.21875 -13.3125 C 0.03125 -14.757812 -0.0507812 -15.820312 -0.03125 -16.5 C -0.0078125 -17.1875 -0.0195312 -17.660156 -0.0625 -17.921875 C -0.101562 -18.191406 -0.117188 -18.421875 -0.109375 -18.609375 C -0.0976562 -18.804688 -0.0703125 -19.164062 -0.03125 -19.6875 C 0 -20.207031 -0.0351562 -20.726562 -0.140625 -21.25 C -0.253906 -21.78125 -0.207031 -22.269531 0 -22.71875 C 0.207031 -23.175781 0.289062 -23.597656 0.25 -23.984375 C 0.207031 -24.378906 0.191406 -24.671875 0.203125 -24.859375 C 0.222656 -25.054688 0.269531 -25.242188 0.34375 -25.421875 C 0.414062 -25.609375 0.425781 -25.816406 0.375 -26.046875 C 0.332031 -26.285156 0.367188 -26.441406 0.484375 -26.515625 C 0.609375 -26.597656 0.675781 -26.820312 0.6875 -27.1875 C 0.707031 -27.5625 0.757812 -27.835938 0.84375 -28.015625 C 0.9375 -28.203125 0.972656 -28.382812 0.953125 -28.5625 C 0.929688 -28.738281 0.953125 -28.878906 1.015625 -28.984375 C 1.078125 -29.097656 1.125 -29.265625 1.15625 -29.484375 C 1.1875 -29.703125 1.242188 -29.890625 1.328125 -30.046875 C 1.410156 -30.203125 1.441406 -30.367188 1.421875 -30.546875 C 1.410156 -30.722656 1.4375 -30.847656 1.5 -30.921875 C 1.5625 -31.003906 1.582031 -31.140625 1.5625 -31.328125 C 1.550781 -31.523438 1.597656 -31.691406 1.703125 -31.828125 C 1.816406 -31.960938 1.878906 -32.207031 1.890625 -32.5625 C 1.910156 -32.925781 2 -33.195312 2.15625 -33.375 C 2.320312 -33.5625 2.4375 -33.785156 2.5 -34.046875 C 2.5625 -34.316406 2.640625 -34.492188 2.734375 -34.578125 C 2.835938 -34.671875 2.925781 -34.804688 3 -34.984375 C 3.070312 -35.171875 3.191406 -35.46875 3.359375 -35.875 C 3.546875 -36.125 3.675781 -36.285156 3.75 -36.359375 C 3.832031 -36.429688 4.023438 -36.539062 4.328125 -36.6875 C 4.640625 -36.832031 4.828125 -36.953125 4.890625 -37.046875 C 4.953125 -37.140625 5.035156 -37.207031 5.140625 -37.25 C 5.535156 -37.257812 5.828125 -37.273438 6.015625 -37.296875 C 6.210938 -37.316406 6.367188 -37.296875 6.484375 -37.234375 C 6.597656 -37.171875 6.804688 -37.117188 7.109375 -37.078125 C 7.421875 -37.046875 7.679688 -37.117188 7.890625 -37.296875 C 8.109375 -37.472656 8.332031 -37.566406 8.5625 -37.578125 C 8.789062 -37.585938 9.046875 -37.625 9.328125 -37.6875 L 9.46875 -37.796875 L 10.78125 -38.15625 Z M 14.84375 -34.125 C 14.351562 -34.070312 13.9375 -34.046875 13.59375 -34.046875 C 13.257812 -34.046875 12.75 -34.007812 12.0625 -33.9375 C 11.375 -33.863281 10.804688 -33.710938 10.359375 -33.484375 C 9.921875 -33.265625 9.566406 -33.0625 9.296875 -32.875 C 9.023438 -32.6875 8.640625 -32.421875 8.140625 -32.078125 C 8.054688 -31.859375 7.972656 -31.703125 7.890625 -31.609375 C 7.816406 -31.515625 7.78125 -31.34375 7.78125 -31.09375 C 7.789062 -30.84375 7.765625 -30.5625 7.703125 -30.25 C 7.648438 -29.9375 7.546875 -28.820312 7.390625 -26.90625 C 7.234375 -25 7.191406 -23.867188 7.265625 -23.515625 C 7.335938 -23.171875 7.367188 -22.796875 7.359375 -22.390625 C 7.347656 -21.984375 7.375 -21.03125 7.4375 -19.53125 C 7.507812 -18.03125 7.578125 -16.960938 7.640625 -16.328125 C 7.703125 -15.691406 7.84375 -14.75 8.0625 -13.5 C 8.28125 -12.257812 8.472656 -11.328125 8.640625 -10.703125 C 8.816406 -10.078125 8.984375 -9.664062 9.140625 -9.46875 C 9.304688 -9.269531 9.523438 -9.019531 9.796875 -8.71875 C 10.191406 -8.519531 10.46875 -8.359375 10.625 -8.234375 C 10.78125 -8.109375 11 -8.039062 11.28125 -8.03125 C 11.5625 -8.019531 11.859375 -8.113281 12.171875 -8.3125 C 12.492188 -8.507812 12.75 -8.722656 12.9375 -8.953125 C 13.132812 -9.179688 13.273438 -9.316406 13.359375 -9.359375 C 13.441406 -9.410156 13.554688 -9.476562 13.703125 -9.5625 C 14.421875 -10.5 14.90625 -11.125 15.15625 -11.4375 C 15.40625 -11.75 15.570312 -12.03125 15.65625 -12.28125 C 15.738281 -12.539062 15.847656 -12.757812 15.984375 -12.9375 C 16.128906 -13.113281 16.226562 -13.300781 16.28125 -13.5 C 16.34375 -13.707031 16.4375 -13.878906 16.5625 -14.015625 C 16.6875 -14.160156 16.78125 -14.34375 16.84375 -14.5625 C 16.914062 -14.78125 17.039062 -14.984375 17.21875 -15.171875 C 17.394531 -15.367188 17.472656 -15.566406 17.453125 -15.765625 C 17.429688 -15.960938 17.46875 -16.097656 17.5625 -16.171875 C 17.65625 -16.253906 17.710938 -16.414062 17.734375 -16.65625 C 17.765625 -16.894531 17.851562 -17.082031 18 -17.21875 C 18.15625 -17.363281 18.238281 -17.550781 18.25 -17.78125 C 18.257812 -18.007812 18.316406 -18.226562 18.421875 -18.4375 C 18.535156 -18.644531 18.585938 -18.863281 18.578125 -19.09375 C 18.566406 -19.332031 18.613281 -19.550781 18.71875 -19.75 C 18.820312 -19.957031 18.867188 -20.195312 18.859375 -20.46875 C 18.859375 -20.738281 18.921875 -21.003906 19.046875 -21.265625 C 19.179688 -21.523438 19.222656 -21.878906 19.171875 -22.328125 C 19.128906 -22.773438 19.164062 -23.164062 19.28125 -23.5 C 19.394531 -23.832031 19.382812 -24.882812 19.25 -26.65625 C 19.113281 -28.425781 18.988281 -29.507812 18.875 -29.90625 C 18.769531 -30.300781 18.644531 -30.648438 18.5 -30.953125 C 18.363281 -31.265625 18.28125 -31.550781 18.25 -31.8125 C 18.226562 -32.082031 18.148438 -32.304688 18.015625 -32.484375 C 17.890625 -32.671875 17.769531 -32.8125 17.65625 -32.90625 C 17.539062 -33 17.363281 -33.144531 17.125 -33.34375 C 16.925781 -33.5 16.773438 -33.617188 16.671875 -33.703125 C 16.578125 -33.785156 16.445312 -33.816406 16.28125 -33.796875 C 16.125 -33.773438 15.992188 -33.820312 15.890625 -33.9375 C 15.796875 -34.0625 15.671875 -34.113281 15.515625 -34.09375 C 15.367188 -34.070312 15.144531 -34.082031 14.84375 -34.125 Z M 14.84375 -34.125 "/></g></g></g></svg>