<svg version="1.1" id="Layer_1" xmlns="http://www.w3.org/2000/svg" xmlns:xlink="http://www.w3.org/1999/xlink" x="0px" y="0px"
	 width="100%" viewBox="0 0 500 500" enable-background="new 0 0 500 500" xml:space="preserve">
<path fill="#FEFEFF" opacity="1.000000" stroke="none" 
	d="
M377.000000,1.000000 
	C418.324402,1.000000 459.648834,1.000000 500.979919,0.999999 
	C500.986633,167.621765 500.986633,334.243530 500.986633,500.932648 
	C334.414246,500.932648 167.828445,500.932648 1.121329,500.932648 
	C1.121329,334.450287 1.121329,167.900436 1.121329,1.000000 
	C123.689766,1.000000 246.379868,1.000000 369.337158,1.366514 
	C322.868317,4.405886 287.529510,37.270023 277.485229,77.548080 
	C275.244629,86.532959 273.900177,95.635590 274.902893,104.909386 
	C323.320404,106.415924 366.482666,72.598068 375.819092,24.099710 
	C377.262482,16.601894 376.657623,8.709772 377.000000,1.000000 
M38.005905,361.482422 
	C40.806770,369.230042 43.607639,376.977661 46.522160,385.039642 
	C48.074455,384.161682 48.793571,383.798981 49.468338,383.366974 
	C80.616089,363.425903 115.114235,358.667694 151.081360,361.505096 
	C184.897598,364.172821 217.164825,373.098816 248.019760,387.168152 
	C248.988434,387.609894 250.075912,387.791077 252.182968,388.408997 
	C249.466187,385.316559 247.497482,383.097717 245.552597,380.858215 
	C234.269043,367.865234 229.524048,352.989227 233.132370,335.950409 
	C234.540787,329.299744 236.400284,322.712463 238.532883,316.254364 
	C242.281998,304.901062 246.790176,293.784241 250.158768,282.326813 
	C251.402634,278.096039 250.490021,273.171906 250.178116,268.590057 
	C250.110733,267.600159 248.097000,265.759216 247.488388,265.948181 
	C243.309586,267.245728 239.155685,268.762299 235.266586,270.743805 
	C234.427505,271.171326 234.021271,274.076355 234.571762,275.334229 
	C237.713882,282.514252 236.601639,286.777100 229.733109,290.699066 
	C219.392670,296.603455 208.625015,296.701904 198.142746,291.519348 
	C181.738052,283.408600 174.124969,268.812103 170.026566,251.788132 
	C165.583679,233.333237 170.945587,219.499664 186.899933,208.321304 
	C214.946655,188.670441 248.393417,191.127975 271.954956,215.910065 
	C284.586945,229.196426 292.819061,245.057526 299.056335,262.056976 
	C309.343140,290.093109 314.146362,319.247253 316.393127,348.901031 
	C318.971405,382.930206 317.916656,416.756073 311.990204,450.462982 
	C308.953094,467.736969 300.866089,481.123901 286.093933,490.528717 
	C283.632751,492.095642 281.343048,493.931915 278.580872,495.927856 
	C280.024597,496.363678 280.939209,496.733551 281.889740,496.912872 
	C301.929474,500.692963 321.448303,498.041962 340.251404,490.950378 
	C386.544952,473.490814 418.859375,440.924927 440.094330,396.799316 
	C454.070435,367.757416 462.303802,337.046936 466.380768,305.138214 
	C470.642242,271.785187 470.121857,238.625000 461.733307,205.933823 
	C454.589844,178.094864 442.157898,153.259995 418.655304,135.285110 
	C397.777344,119.317581 374.845886,108.845917 347.987152,109.022011 
	C329.018433,109.146378 311.234894,114.420868 293.935181,121.717842 
	C284.036926,125.892899 274.122589,130.029800 263.541901,134.466339 
	C263.541901,131.864334 263.541901,130.061890 263.541931,128.259445 
	C263.542114,103.094002 263.558380,77.928543 263.519928,52.763157 
	C263.515625,49.938889 263.442902,47.075104 262.983673,44.298828 
	C261.765350,36.933422 255.261429,31.218956 247.804047,30.686846 
	C237.007980,29.916508 229.112106,37.332779 229.072449,48.646355 
	C228.978958,75.311401 229.040634,101.976997 229.039551,128.642365 
	C229.039474,130.373291 229.039551,132.104218 229.039551,134.582001 
	C221.822845,131.554626 215.373856,128.969406 209.022827,126.162544 
	C189.931259,117.724953 170.574188,110.137779 149.399597,109.165268 
	C115.440613,107.605606 87.491119,121.460381 63.688503,144.297546 
	C45.487156,161.760651 35.700958,184.230988 30.061674,208.415070 
	C18.064293,259.865906 22.629761,310.584656 38.005905,361.482422 
M162.383835,433.215302 
	C166.717072,427.553253 168.474304,419.090179 178.234283,419.638275 
	C177.153091,414.459320 173.669083,412.881409 170.007629,413.147919 
	C164.789566,413.527771 159.611862,414.830078 154.503006,416.088043 
	C153.197479,416.409485 152.215851,418.046448 151.085419,419.079041 
	C152.466782,420.305023 153.665451,422.115326 155.272995,422.617920 
	C157.597595,423.344788 160.218369,423.124451 163.196960,423.343872 
	C161.375031,425.157776 159.879044,426.305206 158.814102,427.766693 
	C154.244751,434.037445 148.838928,439.944641 145.569656,446.851349 
	C141.899765,454.604492 147.453720,463.064941 156.065704,463.933655 
	C162.102524,464.542603 168.366882,464.471283 174.342819,463.524597 
	C177.996231,462.945801 181.571899,460.490204 184.605408,458.134430 
	C185.670898,457.306976 185.810242,453.747742 184.920502,452.381317 
	C184.057404,451.055756 181.212524,450.175903 179.445755,450.448242 
	C174.891037,451.150391 170.503616,452.942383 165.948410,453.635162 
	C162.499939,454.159637 158.895966,453.661530 155.361191,453.618500 
	C156.064499,449.841858 156.755920,446.062897 157.500854,442.294495 
	C157.545166,442.070343 158.018600,441.931030 158.292358,441.752258 
	C158.387802,442.220062 158.483246,442.687897 158.578705,443.155701 
	C164.966644,441.900452 171.386398,440.779022 177.715393,439.275574 
	C178.963211,438.979156 179.861267,437.210388 180.920609,436.120605 
	C179.501984,435.131531 178.174225,433.941467 176.625061,433.241150 
	C175.889786,432.908813 174.736145,433.635803 173.764893,433.668030 
	C169.867340,433.797546 165.966965,433.842987 162.383835,433.215302 
M247.936890,447.179565 
	C249.693527,451.222229 250.763870,455.785339 253.351562,459.197815 
	C258.528717,466.025116 268.317902,465.744965 274.264221,459.574768 
	C283.041046,450.467529 284.908569,439.548798 282.757721,427.702789 
	C281.198242,419.114075 274.579834,414.350922 265.888275,414.900787 
	C264.240417,415.005066 262.510742,415.921967 260.993958,415.610596 
	C255.624146,414.508301 253.457794,418.024017 252.526672,421.940521 
	C250.620026,429.960175 249.410721,438.145599 247.936890,447.179565 
M132.546021,374.198364 
	C109.749535,374.849579 87.977699,379.223450 68.406868,392.009888 
	C122.013908,373.697815 174.921722,382.167969 227.777435,395.691864 
	C197.874191,381.626770 166.451569,374.593658 132.546021,374.198364 
M240.198105,421.577789 
	C237.638901,418.984955 235.079697,416.392120 232.520493,413.799286 
	C230.535797,416.088104 228.368546,418.245789 226.608398,420.695892 
	C223.847672,424.538818 221.361710,428.579163 217.947327,433.770508 
	C215.584351,429.593231 213.925842,426.465912 212.073898,423.457672 
	C210.883072,421.523376 209.662918,419.460266 207.967300,418.036926 
	C206.896866,417.138367 204.506363,416.603607 203.478867,417.210602 
	C202.497330,417.790466 201.950989,420.153748 202.187271,421.570709 
	C203.334976,428.453369 206.233780,434.628632 211.385101,439.404205 
	C217.613235,445.178009 223.157211,443.827454 226.165131,436.025024 
	C227.904816,431.512329 229.449402,426.924438 231.081818,422.370392 
	C232.347107,424.994965 232.600891,427.401947 232.564941,429.804596 
	C232.453400,437.263519 232.038879,444.724091 232.167130,452.176727 
	C232.207077,454.498840 233.044922,457.295929 234.538422,458.958435 
	C235.867538,460.437988 238.610306,461.161804 240.725632,461.154724 
	C241.515045,461.152100 243.047592,458.093933 242.957611,456.501556 
	C242.313461,445.102753 241.338150,433.722717 240.198105,421.577789 
M128.849030,450.304230 
	C129.248001,452.735931 128.910660,455.741974 130.240845,457.447327 
	C131.749405,459.381317 134.751389,460.150421 137.104111,461.425964 
	C138.068741,459.578735 139.956406,457.675323 139.847885,455.893463 
	C139.153610,444.494263 138.479752,433.050140 136.721085,421.789124 
	C136.260330,418.838898 131.984161,416.484497 129.460220,413.856445 
	C127.531769,415.913727 125.366127,417.799469 123.726837,420.065918 
	C120.782860,424.136230 118.154991,428.435120 114.655693,433.764557 
	C112.320625,429.603729 110.726692,426.590851 108.962822,423.681000 
	C107.779602,421.729065 106.646721,419.565582 104.939102,418.174774 
	C103.755585,417.210846 101.444496,416.833923 100.004128,417.308441 
	C99.247475,417.557739 98.563080,420.506409 99.077148,421.710510 
	C101.518944,427.429901 103.557487,433.611237 107.295105,438.418762 
	C112.726761,445.405273 120.027306,443.647827 123.155258,435.433960 
	C123.450691,434.658203 123.754723,433.885284 124.031006,433.102692 
	C125.295166,429.521881 126.550819,425.938080 127.809540,422.355377 
	C128.166443,422.456757 128.523331,422.558167 128.880234,422.659546 
	C128.880234,431.557465 128.880234,440.455414 128.849030,450.304230 
M200.287735,423.365967 
	C200.223984,422.705200 200.406128,421.833160 200.052460,421.421478 
	C198.758469,419.915466 197.286041,418.562775 195.880814,417.152313 
	C194.781570,418.542786 193.244171,419.778931 192.687042,421.360413 
	C191.876297,423.661835 191.521606,426.200745 191.410675,428.658173 
	C191.000107,437.753387 190.288956,446.875183 190.637222,455.950653 
	C190.875732,462.165802 193.526413,464.085907 199.708908,464.726135 
	C202.073914,451.264069 200.713730,437.737000 200.287735,423.365967 
M88.297729,459.849823 
	C89.812119,463.127960 92.258255,464.901855 96.919647,464.823151 
	C97.214691,458.620636 97.746155,452.573944 97.730064,446.528687 
	C97.708458,438.411469 97.488457,430.276947 96.823799,422.193390 
	C96.679337,420.436432 94.290672,418.864044 92.935638,417.206635 
	C91.836281,418.162292 89.955879,418.978699 89.756882,420.094879 
	C87.455627,433.002747 85.689537,445.967834 88.297729,459.849823 
M229.365906,395.869232 
	C229.436584,395.847809 229.507278,395.826385 229.577972,395.804993 
	C229.577225,395.926605 229.576477,396.048187 229.575714,396.169800 
	C229.506912,396.147919 229.438095,396.126007 229.365906,395.869232 
M252.099487,388.492096 
	C252.278168,388.500183 252.456833,388.508270 252.635513,388.516388 
	C252.549667,388.435547 252.463821,388.354706 252.099487,388.492096 
z"/>
<path fill="#014BAD" opacity="1.000000" stroke="none" 
	d="
M376.562500,1.000000 
	C376.657623,8.709772 377.262482,16.601894 375.819092,24.099710 
	C366.482666,72.598068 323.320404,106.415924 274.902893,104.909386 
	C273.900177,95.635590 275.244629,86.532959 277.485229,77.548080 
	C287.529510,37.270023 322.868317,4.405886 369.802155,1.366514 
	C372.041656,1.000000 374.083344,1.000000 376.562500,1.000000 
z"/>
<path fill="#014BAD" opacity="1.000000" stroke="none" 
	d="
M37.911846,361.095306 
	C22.629761,310.584656 18.064293,259.865906 30.061674,208.415070 
	C35.700958,184.230988 45.487156,161.760651 63.688503,144.297546 
	C87.491119,121.460381 115.440613,107.605606 149.399597,109.165268 
	C170.574188,110.137779 189.931259,117.724953 209.022827,126.162544 
	C215.373856,128.969406 221.822845,131.554626 229.039551,134.582001 
	C229.039551,132.104218 229.039474,130.373291 229.039551,128.642365 
	C229.040634,101.976997 228.978958,75.311401 229.072449,48.646355 
	C229.112106,37.332779 237.007980,29.916508 247.804047,30.686846 
	C255.261429,31.218956 261.765350,36.933422 262.983673,44.298828 
	C263.442902,47.075104 263.515625,49.938889 263.519928,52.763157 
	C263.558380,77.928543 263.542114,103.094002 263.541931,128.259445 
	C263.541901,130.061890 263.541901,131.864334 263.541901,134.466339 
	C274.122589,130.029800 284.036926,125.892899 293.935181,121.717842 
	C311.234894,114.420868 329.018433,109.146378 347.987152,109.022011 
	C374.845886,108.845917 397.777344,119.317581 418.655304,135.285110 
	C442.157898,153.259995 454.589844,178.094864 461.733307,205.933823 
	C470.121857,238.625000 470.642242,271.785187 466.380768,305.138214 
	C462.303802,337.046936 454.070435,367.757416 440.094330,396.799316 
	C418.859375,440.924927 386.544952,473.490814 340.251404,490.950378 
	C321.448303,498.041962 301.929474,500.692963 281.889740,496.912872 
	C280.939209,496.733551 280.024597,496.363678 278.580872,495.927856 
	C281.343048,493.931915 283.632751,492.095642 286.093933,490.528717 
	C300.866089,481.123901 308.953094,467.736969 311.990204,450.462982 
	C317.916656,416.756073 318.971405,382.930206 316.393127,348.901031 
	C314.146362,319.247253 309.343140,290.093109 299.056335,262.056976 
	C292.819061,245.057526 284.586945,229.196426 271.954956,215.910065 
	C248.393417,191.127975 214.946655,188.670441 186.899933,208.321304 
	C170.945587,219.499664 165.583679,233.333237 170.026566,251.788132 
	C174.124969,268.812103 181.738052,283.408600 198.142746,291.519348 
	C208.625015,296.701904 219.392670,296.603455 229.733109,290.699066 
	C236.601639,286.777100 237.713882,282.514252 234.571762,275.334229 
	C234.021271,274.076355 234.427505,271.171326 235.266586,270.743805 
	C239.155685,268.762299 243.309586,267.245728 247.488388,265.948181 
	C248.097000,265.759216 250.110733,267.600159 250.178116,268.590057 
	C250.490021,273.171906 251.402634,278.096039 250.158768,282.326813 
	C246.790176,293.784241 242.281998,304.901062 238.532883,316.254364 
	C236.400284,322.712463 234.540787,329.299744 233.132370,335.950409 
	C229.524048,352.989227 234.269043,367.865234 245.552597,380.858215 
	C247.497482,383.097717 249.466187,385.316559 252.182968,388.408997 
	C250.075912,387.791077 248.988434,387.609894 248.019760,387.168152 
	C217.164825,373.098816 184.897598,364.172821 151.081360,361.505096 
	C115.114235,358.667694 80.616089,363.425903 49.468338,383.366974 
	C48.793571,383.798981 48.074455,384.161682 46.522160,385.039642 
	C43.607639,376.977661 40.806770,369.230042 37.911846,361.095306 
M389.876556,135.751694 
	C388.585999,134.923843 387.295471,134.095993 386.004913,133.268143 
	C385.667480,133.537170 385.330048,133.806198 384.992615,134.075226 
	C426.440491,174.998398 441.002716,227.256134 448.562988,282.635315 
	C449.347473,280.613098 449.925659,278.616852 449.945770,276.614990 
	C450.142822,257.027466 447.821747,237.708282 442.799042,218.792984 
	C434.035278,185.789185 418.613800,156.897415 389.876556,135.751694 
z"/>
<path fill="#074FAF" opacity="1.000000" stroke="none" 
	d="
M162.225739,433.567383 
	C165.966965,433.842987 169.867340,433.797546 173.764893,433.668030 
	C174.736145,433.635803 175.889786,432.908813 176.625061,433.241150 
	C178.174225,433.941467 179.501984,435.131531 180.920609,436.120605 
	C179.861267,437.210388 178.963211,438.979156 177.715393,439.275574 
	C171.386398,440.779022 164.966644,441.900452 158.578705,443.155701 
	C158.483246,442.687897 158.387802,442.220062 158.292358,441.752258 
	C158.018600,441.931030 157.545166,442.070343 157.500854,442.294495 
	C156.755920,446.062897 156.064499,449.841858 155.361191,453.618500 
	C158.895966,453.661530 162.499939,454.159637 165.948410,453.635162 
	C170.503616,452.942383 174.891037,451.150391 179.445755,450.448242 
	C181.212524,450.175903 184.057404,451.055756 184.920502,452.381317 
	C185.810242,453.747742 185.670898,457.306976 184.605408,458.134430 
	C181.571899,460.490204 177.996231,462.945801 174.342819,463.524597 
	C168.366882,464.471283 162.102524,464.542603 156.065704,463.933655 
	C147.453720,463.064941 141.899765,454.604492 145.569656,446.851349 
	C148.838928,439.944641 154.244751,434.037445 158.814102,427.766693 
	C159.879044,426.305206 161.375031,425.157776 163.196960,423.343872 
	C160.218369,423.124451 157.597595,423.344788 155.272995,422.617920 
	C153.665451,422.115326 152.466782,420.305023 151.085419,419.079041 
	C152.215851,418.046448 153.197479,416.409485 154.503006,416.088043 
	C159.611862,414.830078 164.789566,413.527771 170.007629,413.147919 
	C173.669083,412.881409 177.153091,414.459320 178.234283,419.638275 
	C168.474304,419.090179 166.717072,427.553253 162.225739,433.567383 
z"/>
<path fill="#064EAF" opacity="1.000000" stroke="none" 
	d="
M247.925583,446.721191 
	C249.410721,438.145599 250.620026,429.960175 252.526672,421.940521 
	C253.457794,418.024017 255.624146,414.508301 260.993958,415.610596 
	C262.510742,415.921967 264.240417,415.005066 265.888275,414.900787 
	C274.579834,414.350922 281.198242,419.114075 282.757721,427.702789 
	C284.908569,439.548798 283.041046,450.467529 274.264221,459.574768 
	C268.317902,465.744965 258.528717,466.025116 253.351562,459.197815 
	C250.763870,455.785339 249.693527,451.222229 247.925583,446.721191 
M265.399414,452.945648 
	C272.566528,445.613800 275.771210,436.832916 274.780121,426.629944 
	C274.468567,423.422638 273.121826,420.844482 269.223053,420.853699 
	C265.753448,420.861877 261.018188,420.102051 260.433319,424.383148 
	C259.228790,433.200256 258.953522,442.188324 258.964722,451.105194 
	C258.969025,454.530304 261.511353,456.065613 265.399414,452.945648 
z"/>
<path fill="#0E54B1" opacity="1.000000" stroke="none" 
	d="
M133.034637,374.185059 
	C166.451569,374.593658 197.874191,381.626770 227.777435,395.691864 
	C174.921722,382.167969 122.013908,373.697815 68.406868,392.009888 
	C87.977699,379.223450 109.749535,374.849579 133.034637,374.185059 
z"/>
<path fill="#0850B0" opacity="1.000000" stroke="none" 
	d="
M240.333084,421.957245 
	C241.338150,433.722717 242.313461,445.102753 242.957611,456.501556 
	C243.047592,458.093933 241.515045,461.152100 240.725632,461.154724 
	C238.610306,461.161804 235.867538,460.437988 234.538422,458.958435 
	C233.044922,457.295929 232.207077,454.498840 232.167130,452.176727 
	C232.038879,444.724091 232.453400,437.263519 232.564941,429.804596 
	C232.600891,427.401947 232.347107,424.994965 231.081818,422.370392 
	C229.449402,426.924438 227.904816,431.512329 226.165131,436.025024 
	C223.157211,443.827454 217.613235,445.178009 211.385101,439.404205 
	C206.233780,434.628632 203.334976,428.453369 202.187271,421.570709 
	C201.950989,420.153748 202.497330,417.790466 203.478867,417.210602 
	C204.506363,416.603607 206.896866,417.138367 207.967300,418.036926 
	C209.662918,419.460266 210.883072,421.523376 212.073898,423.457672 
	C213.925842,426.465912 215.584351,429.593231 217.947327,433.770508 
	C221.361710,428.579163 223.847672,424.538818 226.608398,420.695892 
	C228.368546,418.245789 230.535797,416.088104 232.520508,413.799286 
	C235.079697,416.392120 237.638901,418.984955 240.333084,421.957245 
z"/>
<path fill="#084FAF" opacity="1.000000" stroke="none" 
	d="
M128.864624,449.828796 
	C128.880234,440.455414 128.880234,431.557465 128.880234,422.659546 
	C128.523331,422.558167 128.166443,422.456757 127.809540,422.355377 
	C126.550819,425.938080 125.295166,429.521881 124.031006,433.102692 
	C123.754723,433.885284 123.450691,434.658203 123.155258,435.433960 
	C120.027306,443.647827 112.726761,445.405273 107.295105,438.418762 
	C103.557487,433.611237 101.518944,427.429901 99.077148,421.710510 
	C98.563080,420.506409 99.247475,417.557739 100.004128,417.308441 
	C101.444496,416.833923 103.755585,417.210846 104.939102,418.174774 
	C106.646721,419.565582 107.779602,421.729065 108.962822,423.681000 
	C110.726692,426.590851 112.320625,429.603729 114.655693,433.764557 
	C118.154991,428.435120 120.782860,424.136230 123.726837,420.065918 
	C125.366127,417.799469 127.531769,415.913727 129.460220,413.856445 
	C131.984161,416.484497 136.260330,418.838898 136.721085,421.789124 
	C138.479752,433.050140 139.153610,444.494263 139.847885,455.893463 
	C139.956406,457.675323 138.068741,459.578735 137.104111,461.425964 
	C134.751389,460.150421 131.749405,459.381317 130.240845,457.447327 
	C128.910660,455.741974 129.248001,452.735931 128.864624,449.828796 
z"/>
<path fill="#0A51B0" opacity="1.000000" stroke="none" 
	d="
M200.305481,423.801453 
	C200.713730,437.737000 202.073914,451.264069 199.708908,464.726135 
	C193.526413,464.085907 190.875732,462.165802 190.637222,455.950653 
	C190.288956,446.875183 191.000107,437.753387 191.410675,428.658173 
	C191.521606,426.200745 191.876297,423.661835 192.687042,421.360413 
	C193.244171,419.778931 194.781570,418.542786 195.880829,417.152313 
	C197.286041,418.562775 198.758469,419.915466 200.052460,421.421478 
	C200.406128,421.833160 200.223984,422.705200 200.305481,423.801453 
z"/>
<path fill="#0950B0" opacity="1.000000" stroke="none" 
	d="
M88.145844,459.472473 
	C85.689537,445.967834 87.455627,433.002747 89.756882,420.094879 
	C89.955879,418.978699 91.836281,418.162292 92.935638,417.206635 
	C94.290672,418.864044 96.679337,420.436432 96.823799,422.193390 
	C97.488457,430.276947 97.708458,438.411469 97.730064,446.528687 
	C97.746155,452.573944 97.214691,458.620636 96.919647,464.823151 
	C92.258255,464.901855 89.812119,463.127960 88.145844,459.472473 
z"/>
<path fill="#0E54B1" opacity="1.000000" stroke="none" 
	d="
M229.367599,395.986694 
	C229.438095,396.126007 229.506912,396.147919 229.575714,396.169800 
	C229.576477,396.048187 229.577225,395.926605 229.577972,395.804993 
	C229.507278,395.826385 229.436584,395.847809 229.367599,395.986694 
z"/>
<path fill="#014BAD" opacity="1.000000" stroke="none" 
	d="
M252.238739,388.382965 
	C252.463821,388.354706 252.549667,388.435547 252.635513,388.516357 
	C252.456833,388.508270 252.278168,388.500183 252.238739,388.382965 
z"/>
<path fill="#F5F8FC" opacity="1.000000" stroke="none" 
	d="
M390.171356,135.932785 
	C418.613800,156.897415 434.035278,185.789185 442.799042,218.792984 
	C447.821747,237.708282 450.142822,257.027466 449.945770,276.614990 
	C449.925659,278.616852 449.347473,280.613098 448.562988,282.635315 
	C441.002716,227.256134 426.440491,174.998398 384.992615,134.075226 
	C385.330048,133.806198 385.667480,133.537170 386.004913,133.268143 
	C387.295471,134.095993 388.585999,134.923843 390.171356,135.932785 
z"/>
<path fill="#F8FAFD" opacity="1.000000" stroke="none" 
	d="
M265.109436,453.163849 
	C261.511353,456.065613 258.969025,454.530304 258.964722,451.105194 
	C258.953522,442.188324 259.228790,433.200256 260.433319,424.383148 
	C261.018188,420.102051 265.753448,420.861877 269.223053,420.853699 
	C273.121826,420.844482 274.468567,423.422638 274.780121,426.629944 
	C275.771210,436.832916 272.566528,445.613800 265.109436,453.163849 
z"/>
</svg>