<?xml version="1.0" standalone="no"?>
<!DOCTYPE svg PUBLIC "-//W3C//DTD SVG 20010904//EN"
 "http://www.w3.org/TR/2001/REC-SVG-20010904/DTD/svg10.dtd">
<svg version="1.0" xmlns="http://www.w3.org/2000/svg"
 width="500.000000pt" height="500.000000pt" viewBox="0 0 500.000000 500.000000"
 preserveAspectRatio="xMidYMid meet">

<g transform="translate(0.000000,500.000000) scale(0.100000,-0.100000)"
fill="#000000" stroke="none">
<path d="M2355 4214 c-16 -2 -66 -9 -110 -15 -373 -49 -745 -247 -1012 -539
-307 -336 -470 -781 -450 -1225 16 -333 104 -611 277 -875 110 -168 240 -306
405 -431 446 -339 1043 -437 1578 -259 535 179 955 617 1110 1160 153 531 31
1120 -318 1550 -82 100 -212 224 -321 307 -189 142 -485 268 -727 309 -90 15
-372 27 -432 18z m426 -120 c211 -36 467 -143 649 -272 121 -85 306 -270 390
-390 344 -489 391 -1123 124 -1655 -144 -287 -346 -502 -629 -672 -247 -149
-598 -237 -878 -221 -441 25 -805 191 -1108 503 -362 372 -519 920 -413 1440
96 473 428 905 859 1117 187 93 365 146 557 166 111 12 333 4 449 -16z"/>
<path d="M2500 3986 c0 -12 -3 -51 -6 -85 -6 -52 -5 -61 10 -61 12 0 16 9 16
38 0 31 19 85 20 57 0 -5 9 -21 20 -35 l19 -25 31 35 30 35 -6 -51 c-4 -35 -2
-54 6 -59 18 -11 21 -2 27 84 5 71 4 81 -11 81 -9 0 -29 -18 -45 -41 l-30 -40
-26 45 c-29 50 -55 60 -55 22z"/>
<path d="M2766 3910 c-9 -40 -16 -78 -16 -85 0 -16 109 -40 122 -27 7 7 -2 14
-28 21 -22 6 -45 11 -52 11 -9 0 -11 7 -6 23 3 12 7 23 8 24 1 1 18 -2 38 -6
20 -5 39 -6 42 -3 13 13 4 22 -30 28 -37 7 -54 28 -37 45 7 7 23 7 49 0 24 -7
42 -7 48 -1 11 11 -26 27 -83 36 l-38 6 -17 -72z"/>
<path d="M2050 3943 c1 -26 48 -157 58 -161 17 -5 15 20 -9 99 -13 43 -26 69
-35 69 -8 0 -14 -3 -14 -7z"/>
<path d="M2212 3934 c-33 -23 -28 -92 9 -113 29 -16 77 -8 86 15 8 20 -5 30
-19 16 -14 -14 -54 -16 -63 -2 -3 5 7 12 22 16 55 12 63 16 63 30 0 20 -36 54
-58 54 -10 0 -28 -7 -40 -16z m65 -30 c2 -7 -10 -14 -27 -16 -29 -4 -40 9 -23
26 10 10 46 3 50 -10z"/>
<path d="M2984 3864 c-14 -31 -28 -70 -31 -86 -9 -47 15 -32 39 24 l22 53 9
-43 c9 -48 17 -50 58 -21 33 23 34 21 14 -28 -34 -80 -5 -88 30 -8 49 110 43
128 -28 79 -21 -14 -40 -24 -42 -22 -2 2 -7 25 -12 52 -11 69 -28 69 -59 0z"/>
<path d="M1912 3844 c-50 -35 -1 -138 57 -119 40 12 68 55 36 55 -8 0 -15 -4
-15 -9 0 -16 -40 -23 -56 -10 -8 7 -14 24 -12 38 2 20 10 27 32 31 17 3 29 10
28 15 -3 17 -46 17 -70 -1z"/>
<path d="M1763 3770 c-32 -13 -45 -43 -29 -65 10 -14 21 -16 49 -11 30 6 37 4
37 -9 0 -9 -12 -18 -30 -21 -38 -8 -39 -24 -2 -24 36 0 66 31 57 59 -5 17 -15
21 -51 21 -48 0 -59 16 -19 26 14 3 25 12 25 20 0 16 -6 16 -37 4z"/>
<path d="M3225 3745 c-38 -37 -35 -95 6 -129 58 -49 134 -20 146 56 5 32 1 41
-25 68 -39 39 -91 41 -127 5z m114 -37 c14 -25 14 -29 -5 -55 -12 -15 -31 -29
-43 -31 -30 -5 -61 25 -61 56 0 62 79 84 109 30z"/>
<path d="M2315 3706 c-333 -56 -605 -222 -802 -490 -93 -127 -158 -268 -201
-436 -23 -92 -26 -126 -27 -270 0 -121 5 -187 18 -247 55 -255 159 -448 336
-624 180 -177 374 -282 623 -335 104 -23 350 -25 453 -5 253 49 466 162 645
341 221 220 340 486 356 800 19 344 -112 679 -361 925 -172 171 -375 281 -610
330 -106 23 -327 28 -430 11z m467 -99 c331 -87 616 -322 754 -623 134 -290
138 -649 11 -943 -72 -166 -217 -348 -366 -462 -91 -69 -267 -154 -386 -186
-92 -25 -115 -27 -295 -27 -183 -1 -201 1 -294 27 -190 53 -348 142 -489 276
-239 228 -357 504 -357 838 0 303 104 562 314 781 169 177 354 279 598 332
136 29 373 23 510 -13z"/>
<path d="M1620 3669 c0 -6 9 -22 20 -36 24 -31 26 -61 3 -70 -11 -4 -25 5 -46
30 -16 21 -33 37 -38 37 -18 0 -8 -30 22 -65 36 -41 76 -45 94 -9 6 11 16 19
23 16 22 -7 12 20 -24 64 -35 43 -54 55 -54 33z"/>
<path d="M3417 3562 c-36 -37 -47 -62 -27 -62 5 0 21 12 35 26 20 20 32 24 55
19 23 -5 30 -3 30 9 0 9 -8 16 -20 16 -11 0 -20 7 -20 15 0 24 -13 18 -53 -23z"/>
<path d="M1424 3557 c-3 -8 0 -26 6 -41 5 -15 10 -35 10 -45 0 -16 -5 -17 -47
-10 -85 16 -78 -15 20 -93 56 -45 70 -22 17 26 l-42 38 44 -4 c46 -3 48 0 34
58 -7 26 -6 26 38 -10 32 -27 46 -33 52 -25 5 8 -14 31 -52 66 -63 56 -72 60
-80 40z"/>
<path d="M3531 3441 c-31 -59 -43 -71 -56 -51 -3 6 -10 10 -16 10 -14 0 -11
-26 6 -40 13 -11 29 -9 91 10 41 13 78 28 81 33 11 18 -10 20 -52 5 -25 -10
-45 -15 -45 -12 0 3 9 23 21 46 14 27 17 44 11 50 -7 7 -21 -10 -41 -51z"/>
<path d="M1170 3014 c-120 -279 -130 -648 -26 -958 35 -104 93 -216 111 -216
19 0 19 6 -4 44 -35 58 -92 216 -118 329 -23 97 -27 135 -27 282 -1 127 4 192
17 255 15 72 65 229 92 293 5 12 3 17 -9 17 -10 0 -24 -18 -36 -46z"/>
<path d="M3785 3044 c83 -205 110 -335 109 -544 0 -229 -37 -394 -130 -584
-39 -81 -38 -76 -19 -76 19 0 74 110 113 227 59 176 81 372 63 565 -18 186
-86 419 -126 426 -14 3 -16 0 -10 -14z"/>
<path d="M1532 1481 c-23 -27 -42 -54 -42 -60 0 -14 23 -14 37 0 7 7 21 5 46
-7 35 -17 37 -17 57 1 11 10 20 28 20 40 0 21 -47 75 -66 75 -6 0 -30 -22 -52
-49z m78 -6 c22 -26 -7 -46 -39 -26 -12 8 -12 12 -2 25 17 20 25 20 41 1z"/>
<path d="M3365 1480 c-8 -12 72 -110 88 -110 7 0 28 14 47 30 25 21 32 32 24
40 -8 8 -18 4 -39 -12 l-28 -22 -37 42 c-40 45 -45 48 -55 32z"/>
<path d="M1687 1398 c-60 -82 -67 -98 -43 -98 8 0 25 15 38 33 l23 32 5 -60
c6 -77 22 -78 72 -6 27 39 35 58 28 65 -8 8 -20 1 -40 -24 l-29 -35 -1 51 c0
71 -20 86 -53 42z"/>
<path d="M3254 1395 c-6 -14 1 -83 13 -132 7 -31 33 -30 33 1 0 33 35 57 71
49 47 -9 33 12 -36 56 -73 46 -74 47 -81 26z m54 -62 c-13 -16 -28 -7 -28 18
0 16 3 18 19 7 15 -9 17 -16 9 -25z"/>
<path d="M1843 1274 l-25 -56 19 -27 c39 -51 92 -41 122 24 24 52 26 65 8 65
-7 0 -23 -20 -35 -45 -35 -72 -92 -54 -63 19 37 90 14 107 -26 20z"/>
<path d="M3088 1304 c-16 -8 -28 -17 -28 -20 0 -2 14 -32 30 -65 30 -59 55
-73 55 -31 0 11 10 30 23 42 60 57 -3 116 -80 74z m68 -25 c3 -6 -1 -18 -10
-27 -16 -16 -18 -16 -32 2 -11 16 -11 22 -1 28 17 11 35 10 43 -3z"/>
<path d="M2970 1254 c0 -4 10 -34 22 -66 19 -54 40 -79 54 -66 10 11 -43 133
-59 136 -10 2 -17 0 -17 -4z"/>
<path d="M2815 1196 c-30 -31 -32 -65 -4 -100 43 -55 147 -23 130 41 -4 15
-13 28 -19 27 -7 -1 -21 -2 -32 -2 -27 -3 -26 -32 1 -32 27 0 19 -24 -10 -28
-29 -4 -51 14 -51 43 0 28 17 42 55 47 42 4 37 22 -7 26 -29 3 -43 -2 -63 -22z"/>
<path d="M2207 1186 c-14 -35 -19 -136 -8 -136 6 0 16 11 21 25 13 34 24 31
50 -11 29 -50 48 -32 23 21 l-18 37 30 24 c44 35 20 51 -27 19 -47 -32 -49
-31 -41 5 4 23 2 30 -10 30 -8 0 -17 -6 -20 -14z"/>
<path d="M2696 1181 c-3 -4 -1 -35 4 -67 6 -32 10 -62 10 -66 0 -5 7 -8 16 -8
14 0 16 8 10 61 -4 33 -10 67 -13 75 -6 16 -19 18 -27 5z"/>
<path d="M2502 1098 l3 -73 42 -3 c77 -6 118 64 72 122 -17 22 -28 26 -70 26
l-50 0 3 -72z m88 28 c26 -32 -7 -87 -44 -73 -11 4 -16 19 -16 47 0 35 3 40
24 40 13 0 29 -7 36 -14z"/>
<path d="M1999 1133 c-1 -5 -1 -12 0 -17 1 -4 -4 -14 -10 -22 -9 -11 -8 -14 4
-14 19 0 41 36 32 50 -7 12 -24 13 -26 3z"/>
<path d="M2375 1100 c-9 -15 -5 -18 30 -22 21 -2 30 1 30 12 0 18 -50 26 -60
10z"/>
</g>
</svg>
