<?xml version="1.0" standalone="no"?>
<!DOCTYPE svg PUBLIC "-//W3C//DTD SVG 20010904//EN"
 "http://www.w3.org/TR/2001/REC-SVG-20010904/DTD/svg10.dtd">
<svg version="1.0" xmlns="http://www.w3.org/2000/svg"
 width="500.000000pt" height="500.000000pt" viewBox="0 0 500.000000 500.000000"
 preserveAspectRatio="xMidYMid meet">

<g transform="translate(0.000000,500.000000) scale(0.100000,-0.100000)"
fill="#000000" stroke="none">
<path d="M2320 4213 c-249 -38 -393 -79 -557 -158 -491 -235 -839 -680 -953
-1221 -27 -128 -37 -381 -21 -524 49 -427 248 -812 566 -1094 336 -297 756
-449 1200 -433 449 16 841 185 1155 497 168 168 286 340 374 549 86 203 124
374 133 596 20 496 -161 956 -514 1302 -330 324 -756 496 -1215 492 -79 -1
-154 -3 -168 -6z m319 -103 c143 -13 238 -33 371 -77 237 -78 440 -204 621
-383 133 -132 221 -251 303 -410 107 -208 156 -382 177 -625 30 -359 -77 -744
-294 -1052 -69 -98 -239 -274 -334 -346 -283 -216 -626 -331 -983 -331 -287 0
-577 77 -810 216 -332 198 -573 484 -705 835 -25 65 -66 220 -79 295 -30 171
-24 424 14 604 98 471 426 896 855 1108 281 139 561 193 864 166z"/>
<path d="M2496 3958 c-10 -85 -8 -118 8 -118 9 0 16 18 20 52 l7 52 21 -32
c11 -18 23 -32 26 -32 4 0 19 14 33 31 l26 32 -5 -57 c-4 -45 -2 -56 11 -56 8
0 17 13 21 31 9 47 7 137 -3 144 -6 3 -24 -13 -42 -35 -18 -22 -35 -40 -38
-40 -3 0 -16 18 -29 40 -31 55 -48 52 -56 -12z"/>
<path d="M2766 3911 c-9 -39 -16 -76 -16 -84 0 -15 67 -37 110 -37 36 0 17 23
-29 34 -23 6 -42 14 -42 19 1 4 1 14 1 23 0 10 6 14 18 10 59 -17 72 -18 72
-3 0 10 -13 18 -35 23 -19 3 -37 10 -40 14 -9 14 7 41 21 36 7 -3 29 -8 48
-12 28 -5 36 -3 36 8 0 13 -75 38 -115 38 -8 0 -19 -26 -29 -69z"/>
<path d="M2055 3951 c-7 -13 33 -159 47 -167 23 -14 24 13 2 83 -25 81 -37
102 -49 84z"/>
<path d="M2212 3934 c-33 -23 -28 -92 9 -113 29 -16 77 -8 86 15 8 20 -5 30
-19 16 -14 -14 -54 -16 -63 -2 -5 9 11 15 60 22 29 5 31 43 3 62 -28 20 -48
20 -76 0z m65 -30 c2 -7 -10 -14 -27 -16 -29 -4 -40 9 -23 26 10 10 46 3 50
-10z"/>
<path d="M2980 3856 c-34 -78 -40 -101 -22 -101 7 0 23 23 36 50 l23 50 6 -42
c8 -49 17 -52 59 -22 l30 22 -7 -24 c-4 -13 -14 -36 -21 -50 -13 -26 -10 -39
8 -39 10 0 68 125 68 146 0 22 -28 17 -66 -12 -19 -15 -36 -25 -38 -23 -2 2
-7 26 -12 53 -5 27 -15 51 -22 54 -7 2 -24 -22 -42 -62z"/>
<path d="M1913 3845 c-53 -38 -12 -133 52 -121 42 9 76 56 40 56 -8 0 -15 -4
-15 -9 0 -16 -40 -23 -56 -10 -8 7 -14 24 -12 38 2 20 10 27 32 31 17 3 29 10
28 15 -2 17 -46 17 -69 0z"/>
<path d="M1743 3756 c-38 -33 -23 -61 33 -62 47 0 57 -22 14 -30 -35 -8 -35
-30 1 -26 50 6 78 61 42 80 -10 5 -33 7 -50 5 -42 -7 -43 12 -2 26 17 6 28 15
24 21 -10 17 -32 12 -62 -14z"/>
<path d="M3237 3759 c-11 -6 -25 -26 -33 -44 -26 -63 20 -125 91 -125 38 0 85
50 85 90 0 65 -86 112 -143 79z m102 -51 c14 -25 14 -29 -5 -55 -12 -15 -31
-29 -43 -31 -30 -5 -61 25 -61 56 0 62 79 84 109 30z"/>
<path d="M2305 3705 c-317 -50 -614 -237 -804 -506 -348 -492 -280 -1171 159
-1582 371 -348 896 -434 1359 -221 240 110 475 345 585 585 185 402 143 868
-110 1226 -62 88 -200 225 -288 287 -258 183 -589 261 -901 211z m477 -98
c331 -87 616 -322 754 -623 134 -290 138 -649 11 -943 -72 -166 -217 -348
-366 -462 -91 -69 -267 -154 -386 -186 -92 -25 -115 -27 -295 -27 -183 -1
-201 1 -294 27 -190 53 -348 142 -489 276 -239 228 -357 504 -357 838 0 303
104 562 314 781 169 177 354 279 598 332 136 29 373 23 510 -13z"/>
<path d="M1620 3668 c0 -7 9 -24 20 -38 46 -59 6 -94 -41 -36 -17 20 -35 36
-40 36 -18 0 -8 -30 22 -65 35 -40 72 -46 91 -15 7 11 18 20 25 20 21 0 15 20
-19 66 -32 42 -58 57 -58 32z"/>
<path d="M3417 3562 c-37 -38 -47 -62 -26 -62 7 0 22 12 36 26 19 21 29 24 53
19 23 -5 30 -3 30 9 0 9 -8 16 -20 16 -11 0 -19 5 -17 11 5 26 -21 17 -56 -19z"/>
<path d="M1423 3541 c3 -16 9 -41 13 -56 l7 -28 -57 7 c-45 6 -56 5 -56 -7 0
-19 104 -117 124 -117 24 0 20 10 -21 53 l-38 39 36 -7 c45 -8 53 3 40 50
l-10 36 40 -35 c42 -38 59 -45 59 -22 0 18 -109 116 -128 116 -11 0 -13 -8 -9
-29z"/>
<path d="M3530 3440 c-30 -59 -42 -70 -55 -50 -3 6 -10 10 -16 10 -14 0 -11
-26 6 -40 13 -11 29 -9 87 9 40 12 77 26 82 31 20 20 -6 24 -50 8 -24 -8 -44
-14 -44 -11 0 2 9 21 20 43 22 43 25 60 10 60 -5 0 -23 -27 -40 -60z"/>
<path d="M1176 3033 c-17 -35 -70 -207 -88 -288 -17 -81 -17 -410 0 -490 41
-187 131 -415 163 -415 10 0 19 2 19 4 0 2 -18 41 -39 87 -49 105 -76 187
-103 314 -28 130 -30 369 -5 494 14 69 63 229 92 304 12 29 -23 20 -39 -10z"/>
<path d="M3785 3044 c83 -205 108 -327 108 -539 1 -138 -3 -189 -21 -272 -26
-119 -60 -220 -108 -315 -39 -77 -39 -78 -19 -78 33 0 121 215 156 383 32 147
32 408 0 556 -30 141 -80 275 -105 279 -15 3 -17 0 -11 -14z"/>
<path d="M1531 1481 c-23 -27 -41 -54 -41 -60 0 -14 23 -14 37 0 8 8 17 7 34
-5 13 -9 31 -16 40 -16 22 0 49 32 49 58 0 22 -46 72 -66 72 -7 0 -31 -22 -53
-49z m79 -6 c13 -16 6 -35 -14 -35 -22 0 -37 25 -24 38 16 16 23 15 38 -3z"/>
<path d="M3360 1479 c0 -16 80 -109 93 -109 7 0 28 14 47 30 28 23 32 31 23
41 -10 10 -18 8 -39 -12 l-26 -24 -37 43 c-35 41 -61 54 -61 31z"/>
<path d="M1666 1369 c-27 -41 -36 -63 -29 -70 7 -7 20 1 39 27 l29 38 5 -60
c4 -42 9 -60 20 -61 16 -3 92 105 84 119 -11 17 -30 7 -49 -24 l-20 -33 -3 40
c-7 104 -22 109 -76 24z"/>
<path d="M3253 1398 c-8 -14 -7 -27 8 -105 7 -35 15 -53 25 -53 8 0 14 10 14
24 0 33 35 57 71 49 47 -9 34 12 -34 56 -70 45 -73 46 -84 29z m52 -56 c0 -18
-20 -15 -23 4 -3 10 1 15 10 12 7 -3 13 -10 13 -16z"/>
<path d="M1845 1280 c-14 -27 -25 -56 -25 -65 0 -27 38 -55 75 -55 29 0 39 6
55 33 27 42 35 76 22 89 -7 7 -18 -5 -36 -41 -27 -52 -32 -56 -60 -45 -21 8
-20 23 3 75 11 24 17 47 15 51 -11 18 -25 6 -49 -42z"/>
<path d="M3088 1304 c-16 -8 -28 -17 -28 -20 0 -21 63 -124 76 -124 12 0 15 6
10 24 -4 18 0 28 19 40 27 18 34 63 13 84 -16 16 -57 14 -90 -4z m68 -25 c3
-6 -1 -18 -10 -27 -16 -16 -18 -16 -32 2 -11 16 -11 22 -1 28 17 11 35 10 43
-3z"/>
<path d="M2974 1237 c14 -56 46 -117 61 -117 18 0 16 9 -15 90 -19 50 -58 72
-46 27z"/>
<path d="M2815 1196 c-69 -69 26 -167 109 -112 21 13 25 22 20 44 -9 38 -17
44 -48 36 -31 -7 -35 -34 -5 -34 27 0 19 -24 -10 -28 -29 -4 -51 14 -51 43 0
28 17 42 55 47 42 4 37 22 -7 26 -29 3 -43 -2 -63 -22z"/>
<path d="M2205 1178 c-13 -57 -22 -118 -17 -123 11 -11 23 -4 32 20 13 34 24
31 50 -11 16 -28 24 -34 33 -25 9 9 7 20 -8 47 l-19 35 30 24 c20 16 26 27 19
34 -8 8 -22 3 -47 -14 -20 -14 -39 -25 -41 -25 -2 0 -2 14 1 30 3 23 0 30 -12
30 -8 0 -18 -10 -21 -22z"/>
<path d="M2695 1180 c-3 -5 -1 -39 6 -75 8 -46 15 -65 26 -65 13 0 14 11 8 68
-4 37 -9 70 -12 75 -6 10 -21 9 -28 -3z"/>
<path d="M2502 1098 l3 -73 42 -3 c35 -3 48 2 68 22 55 55 17 126 -69 126
l-47 0 3 -72z m86 30 c26 -26 7 -78 -29 -78 -17 0 -29 27 -29 68 0 16 6 22 23
22 13 0 28 -5 35 -12z"/>
<path d="M1995 1130 c-3 -5 -4 -14 0 -19 3 -6 -3 -14 -12 -20 -16 -9 -16 -10
4 -11 21 0 43 25 43 49 0 14 -27 14 -35 1z"/>
<path d="M2375 1100 c-10 -15 -2 -21 31 -23 20 -1 29 3 29 13 0 18 -50 26 -60
10z"/>
</g>
</svg>
